<svg xmlns="http://www.w3.org/2000/svg" viewBox="0 0 168 39.999998" height="40" width="168"><g fill="#e3dbdb"><path d="M21.043 2.017c-1.056 0-1.297 1.086-1.297 1.086v.635l-.236.276s-.355-.218-.83-.652c-.475-.434-.784-.347-1.154 0-.37.348.003 1.043.003 1.043.158.39.37 1.606.475 2.04.106.434-.314 1.91-.103 2.3.21.392.106 1.043.106 1.825 0 .042-.02.09-.03.133-.243-.404-.462-.728-.63-.99-.39-.604-.465-1.56-.52-1.933-.056-.373-.707-.876-.707-.876s-.005.268-.12.412c-.597-.754-1.104-.457-1.104-.457s.022.284.17.508c-.13-.147-.728-.346-.79-.2-.07.158.32.76.59 1.017-.77-.225-.81-.012-.81-.012s.293.575.726.702c.433.126 1.077.892 1.077.892l.21.643.502.593.36 1.15c-.16.14-.403.37-.403.37l-.9.824s-1.69-.477-1.69-.39c-1.688-1.78-2.53-2.3-3.165-2.778-.633-.478-1.108-1.39-1.32-1.738-.21-.348-1.056-.65-1.056-.65s.105.26.053.433c-.898-.565-1.268-.13-1.268-.13s.142.273.38.45c-.188-.107-.856-.132-.856.027 0 .174.632.653 1.002.826-.845 0-.792.217-.792.217s.527.476 1.003.476c.474 0 1.424.568 1.424.568l.476.564.74.433s2.534 3.082 2.957 3.69c.422.607 1.108.782 1.108.782s.844.044 1.53.174c-1.108 1.694 5.335 6.773 5.335 6.773 1.003 1.26.316 4.21.316 4.21s-.9 1.998-.53 2.823.846 1.086 2.536 2.345c1.69 1.26 1.265 2.17 1.265 2.17s-.685 1.693-1.002 2.127c-.58-.217-1.266-.045-1.16.26.106.304 1.214.304 1.425.13.264.174.792 0 .792 0s.9-1.563 1.374-2.344c.79 0 1.686-1.78 1.686-1.78-1.69-2.43-1.478-3.82-1.32-4.123.16-.304.636-1.04.847-1.866 3.01 1.953 5.332 1.865 6.124 1.43.792-.434 1.32.088 1.425.13.106.045.738-.17.422-.432-.317-.26-1.268-.608-1.796-.478s-1.16.218-2.268.13c-1.11-.086-2.746-1.475-3.59-2.387.052-1.302-2.642-5.47-3.275-6.73-.634-1.257-.633-4.297-.633-4.297.124-.946-.497-1.5-.37-1.912.088-.287.58.088.738-.39 0-.26 0-1.43-.21-1.778-.212-.347-.67-.225-.685-.738-.015-.472-.476-1.116-.425-1.26.264-.737.16-2.474.16-2.474s.262-.955-.265-.955c-.528 0-.844-.564-.844-.564l-.264-1.477s.133-.826-.923-.826zm3.88 28.696c.476.304 1.056 1.52 1.056 1.52-.846-.565-1.056-1.52-1.056-1.52zM47.886 29.86c.094-1.642.142-5.856.142-12.64 0-3.627-.048-6.11-.142-7.445-4.196.178-6.566.266-7.11.266-.52 0-.88-.082-1.08-.247-.2-.166-.302-.48-.302-.94 0-.66.166-1.382.497-2.162 2.01.532 4.923.8 8.74.8h11.08c.52 0 .883.084 1.09.256.207.17.31.48.31.93 0 .828-.242 1.613-.727 2.358-1.973-.84-4.538-1.26-7.693-1.26h-.603c-.094 1.337-.142 3.89-.142 7.66 0 6.642.048 10.784.142 12.426h2.535c.142.355.213.698.213 1.03 0 .294-.06.5-.177.62-.12.118-.326.176-.62.176H45.35c-.153-.4-.23-.774-.23-1.116 0-.25.062-.428.187-.54.124-.114.327-.17.61-.17h1.97z"/><path d="M57.523 15.023c0-.32.124-.523.372-.612.248-.087 1.814-.178 4.698-.274.07.544.07 1.27 0 2.18 1.31-.886 2.573-1.5 3.785-1.843 1.21-.343 2.313-.514 3.305-.514.33 0 .553.037.665.115.112.076.17.245.17.505 0 .508-.08 1.052-.24 1.63-.16.58-.352.946-.577 1.1-.223.153-.596.272-1.116.354-.52.083-.824.1-.912.053-.09-.047-.358-.372-.807-.975-1.052 0-1.903.334-2.553 1.002-.65.668-.975 2.012-.975 4.033.012 3.628.06 6.323.142 8.083h2.498c.142.308.213.638.213.993 0 .32-.064.538-.194.657-.13.118-.378.177-.744.177h-7.5c-.153-.38-.23-.734-.23-1.065 0-.26.066-.45.195-.575.13-.124.343-.187.64-.187h1.222c.094-1.76.14-4.065.14-6.913 0-3.486-.136-5.508-.407-6.062-.272-.557-.792-.834-1.56-.834-.154-.33-.23-.673-.23-1.027M78.576 16.246c-1.182 0-2.08.423-2.695 1.267-.614.846-.95 2.166-1.01 3.962h1.826c1.938 0 3.26-.038 3.962-.115.703-.076 1.11-.204 1.224-.38.112-.178.168-.51.168-.994 0-1.17-.296-2.085-.887-2.747-.59-.663-1.453-.994-2.587-.994m.673-2.376c2.197 0 3.828.52 4.89 1.56 1.065 1.04 1.597 2.754 1.597 5.14 0 1.053-.19 1.786-.567 2.2-.378.414-1.206.62-2.482.62h-7.835c.023 1.926.41 3.44 1.16 4.538.75 1.1 2.078 1.65 3.98 1.65 1.773 0 3.422-.462 4.947-1.384.508.51.762 1.046.762 1.613 0 .793-.653 1.347-1.96 1.667-1.305.32-2.78.48-4.422.48-3.026 0-5.197-.643-6.515-1.925-1.318-1.283-1.976-3.443-1.976-6.48 0-2.99.74-5.35 2.223-7.082 1.483-1.732 3.548-2.598 6.196-2.598M94.966 16.246c-1.18 0-2.08.423-2.694 1.267-.615.846-.952 2.166-1.01 3.962h1.825c1.938 0 3.26-.038 3.962-.115.702-.076 1.11-.204 1.222-.38.112-.178.17-.51.17-.994 0-1.17-.297-2.085-.888-2.747-.59-.663-1.453-.994-2.588-.994m.674-2.376c2.198 0 3.83.52 4.893 1.56 1.063 1.04 1.595 2.754 1.595 5.14 0 1.053-.19 1.786-.567 2.2-.377.414-1.204.62-2.48.62h-7.836c.023 1.926.41 3.44 1.16 4.538.75 1.1 2.078 1.65 3.98 1.65 1.774 0 3.422-.462 4.946-1.384.508.51.763 1.046.763 1.613 0 .793-.654 1.347-1.96 1.667-1.305.32-2.78.48-4.422.48-3.025 0-5.196-.643-6.514-1.925-1.318-1.283-1.977-3.443-1.977-6.48 0-2.99.74-5.35 2.224-7.082 1.484-1.732 3.548-2.598 6.196-2.598M111.64 16.246c-1.417 0-2.443.494-3.075 1.48-.632.987-.948 2.692-.948 5.115 0 2.127.3 3.797.904 5.01.603 1.21 1.62 1.816 3.05 1.816.756 0 1.447-.152 2.074-.453.626-.3 1.054-.697 1.285-1.187.23-.49.345-1.7.345-3.626v-7.232c-.425-.236-.943-.45-1.55-.638-.61-.19-1.304-.284-2.084-.284m4.13 14.022c-1.074.638-2.08 1.094-3.012 1.365-.934.272-1.897.408-2.89.408-2.01 0-3.554-.602-4.636-1.807-1.08-1.206-1.622-3.297-1.622-6.276 0-3.285.72-5.788 2.163-7.507 1.442-1.72 3.6-2.58 6.47-2.58.686 0 1.26.036 1.72.107.46.07.898.16 1.312.266 0-.875-.02-1.812-.062-2.81-.04-1-.124-1.704-.248-2.12-.124-.412-.33-.678-.62-.796s-.66-.178-1.108-.178c-.155-.366-.23-.728-.23-1.082 0-.366.147-.596.442-.69.294-.096 1.27-.143 2.924-.143.934 0 1.566.044 1.897.133.332.09.52.254.568.496.047.243.07.66.07 1.25v12.693c0 4.514.104 7.144.312 7.89.206.743.528 1.068.965.974.166.273.25.538.25.798 0 .33-.394.645-1.18.94-.787.295-1.427.443-1.924.443-.294 0-.543-.102-.743-.31-.2-.205-.473-.693-.816-1.462M130.14 29.665c1.35 0 2.324-.507 2.926-1.524.603-1.015.904-2.58.904-4.697 0-2.434-.31-4.243-.93-5.425-.62-1.18-1.687-1.773-3.2-1.773-1.348 0-2.323.51-2.926 1.525-.602 1.017-.903 2.59-.903 4.716 0 2.423.31 4.225.93 5.407.622 1.182 1.688 1.772 3.2 1.772m-.673 2.376c-2.564 0-4.45-.68-5.655-2.038-1.205-1.36-1.808-3.41-1.808-6.15 0-3.157.73-5.61 2.19-7.358 1.46-1.75 3.566-2.624 6.32-2.624 2.564 0 4.45.68 5.655 2.04 1.204 1.358 1.807 3.415 1.807 6.168 0 3.144-.73 5.59-2.19 7.34s-3.566 2.623-6.32 2.623M146.638 15.89c-1.123 0-1.956.318-2.5.95-.543.632-.815 1.775-.815 3.43 0 1.418.263 2.452.79 3.102.524.65 1.35.975 2.472.975 1.194 0 2.074-.293 2.64-.877.57-.585.852-1.687.852-3.306 0-1.43-.286-2.5-.86-3.21-.573-.708-1.433-1.063-2.58-1.063m-2.87 16.328c-.415.414-.73.88-.95 1.4-.218.52-.327 1.047-.327 1.578 0 .804.242 1.383.727 1.738.484.354 1.454.532 2.906.532 2.128 0 3.733-.255 4.814-.763 1.08-.508 1.622-1.247 1.622-2.216 0-.85-.397-1.442-1.188-1.772-.793-.33-3.328-.497-7.606-.497m8.9-16.31c.66 1.183.992 2.44.992 3.777 0 1.997-.64 3.61-1.923 4.84s-3.3 1.843-6.054 1.843c-1.24 0-2.044.134-2.41.4-.367.264-.55.652-.55 1.16 0 .615.25 1.058.745 1.33.496.272 2.31.408 5.442.408 3.085 0 5.085.316 6 .948.917.632 1.374 1.57 1.374 2.81 0 1.867-.97 3.344-2.915 4.43-1.943 1.088-4.954 1.633-9.03 1.633-1.987 0-3.316-.27-3.99-.807-.674-.54-1.01-1.292-1.01-2.26 0-.72.188-1.457.566-2.208.38-.75.906-1.474 1.58-2.17-.58-.238-1.043-.59-1.393-1.056-.348-.466-.522-1.043-.522-1.728 0-.71.224-1.362.674-1.96.447-.596 1.133-1.12 2.055-1.568-.757-.307-1.37-.857-1.835-1.648-.467-.792-.7-1.827-.7-3.103 0-2.08.638-3.786 1.914-5.115 1.277-1.33 3.197-1.995 5.762-1.995 1.418 0 2.724.23 3.918.692 1.536-.697 2.452-1.046 2.747-1.046 1.432 0 2.21.04 2.34.115.13.078.196.205.196.382 0 .307-.14.748-.416 1.32-.278.574-.538.86-.78.86s-1.026-.266-2.35-.797l-.425.514z"/></g></svg>