<svg xmlns="http://www.w3.org/2000/svg" width="168" height="40" viewBox="0 0 168 39.999998"><defs><clipPath id="a"><path d="M0 415h550V0H0v415z"/></clipPath></defs><g clip-path="url(#a)" transform="matrix(.1296 0 0 -.12758 -15.282 51.842)"><path d="M401 124.45c0-3.01-2.44-5.45-5.452-5.45H155.452c-3.01 0-5.452 2.44-5.452 5.45v240.1c0 3.01 2.44 5.45 5.452 5.45h240.096c3.01 0 5.452-2.44 5.452-5.45v-240.1z" fill="#534741"/></g><g fill="#c7b299"><path d="M23.008 29.53c.332.228.738 1.14.738 1.14-.59-.424-.738-1.14-.738-1.14m7.53-1.917c-.22-.195-.886-.455-1.255-.358-.37.098-.812.163-1.587.098-.776-.065-1.92-1.106-2.51-1.788.037-.976-1.846-4.097-2.29-5.04-.442-.942-.442-3.218-.442-3.218.087-.71-.347-1.123-.26-1.43.063-.216.407.064.518-.293 0-.195 0-1.073-.147-1.333-.148-.26-.47-.168-.48-.552-.01-.354-.332-.836-.296-.943.184-.552.11-1.853.11-1.853s.185-.715-.184-.715c-.37 0-.59-.423-.59-.423L20.94 8.66s.092-.62-.647-.62c-.738 0-.905.814-.905.814v.475l-.165.207s-.25-.163-.58-.488c-.334-.326-.55-.26-.81 0-.257.26.004.78.004.78.11.292.26 1.202.334 1.527.074.325-.22 1.43-.073 1.723.148.293.074.78.074 1.366 0 .585-1.032 1.463-1.032 1.463l-.628.617s-1.18-.358-1.18-.293c-1.182-1.333-1.773-1.723-2.216-2.08-.443-.358-.775-1.04-.922-1.3-.148-.26-.74-.49-.74-.49s.075.196.038.326c-.628-.423-.886-.097-.886-.097s.1.203.268.335c-.133-.08-.6-.097-.6.022 0 .13.443.488.7.618-.59 0-.553.163-.553.163s.37.358.7.358c.333 0 .997.423.997.423l.333.424.517.325s1.77 2.307 2.067 2.762c.295.455.775.585.775.585s.59.033 1.07.13c-.776 1.268 3.728 5.072 3.728 5.072.7.942.222 3.153.222 3.153s-.628 1.495-.37 2.113c.26.618.59.813 1.772 1.756 1.182.943.886 1.625.886 1.625s-.48 1.268-.7 1.593c-.407-.162-.887-.033-.813.195.074.228.85.228.996.098.186.13.555 0 .555 0s.628-1.17.96-1.756c.554 0 1.18-1.333 1.18-1.333-1.18-1.82-1.032-2.86-.92-3.088.11-.228.442-.78.59-1.398 2.103 1.462 3.728 1.398 4.28 1.072.555-.325.924.065.998.098.074.033.517-.13.295-.325"/><path d="M18.036 17.877c.102.5.49.755.49.755s.528.198.93.423c-.195.155-.28.415-.292.74l1.28.4-.513-3.26s-.943-.662-.967-.603c-.587-1.552-.98-2.076-1.254-2.528-.273-.452-.325-1.17-.363-1.448-.04-.28-.494-.655-.494-.655s-.004.2-.086.308c-.416-.564-.772-.342-.772-.342s.017.214.12.382c-.09-.11-.51-.26-.554-.15-.046.118.226.57.413.762-.538-.168-.564-.01-.564-.01s.204.432.507.526c.302.095.753.67.753.67l.147.48.35.443s.767 2.608.87 3.107"/></g><g fill="#534741"><path d="M55.806 28.64c.092-1.603.14-5.713.14-12.33 0-3.538-.048-5.96-.14-7.262-4.092.173-6.404.26-6.934.26-.507 0-.86-.082-1.055-.243-.195-.162-.294-.467-.294-.916 0-.647.162-1.35.484-2.11 1.96.518 4.8.777 8.525.777H67.34c.507 0 .86.084 1.063.25.2.168.303.47.303.91 0 .806-.237 1.572-.71 2.3-1.925-.82-4.426-1.23-7.504-1.23h-.588c-.092 1.303-.138 3.793-.138 7.47 0 6.48.046 10.52.138 12.122h2.473c.138.345.207.68.207 1.002 0 .288-.057.49-.173.606-.114.115-.316.172-.604.172h-8.472c-.15-.39-.225-.755-.225-1.09 0-.242.06-.417.18-.527.12-.11.32-.164.597-.164h1.92z"/><path d="M65.206 14.166c0-.31.12-.51.363-.597.24-.087 1.768-.175 4.58-.268.07.53.07 1.238 0 2.126 1.28-.864 2.51-1.463 3.693-1.798 1.18-.334 2.257-.502 3.225-.502.322 0 .54.038.648.113.11.076.164.24.164.494 0 .496-.077 1.026-.233 1.59-.156.566-.343.923-.562 1.073-.22.15-.582.265-1.09.346-.507.08-.803.098-.89.05-.086-.045-.348-.362-.786-.95-1.028 0-1.858.326-2.492.978-.633.652-.95 1.963-.95 3.934.01 3.54.057 6.168.138 7.885h2.438c.138.3.207.62.207.967 0 .31-.062.525-.19.64-.125.116-.368.173-.725.173H65.43c-.15-.37-.224-.715-.224-1.038 0-.253.063-.44.19-.56.127-.122.334-.183.623-.183h1.192c.092-1.718.138-3.966.138-6.745 0-3.4-.133-5.372-.398-5.913-.265-.542-.772-.813-1.52-.813-.152-.324-.226-.658-.226-1.004M85.74 15.36c-1.152 0-2.028.412-2.627 1.235-.6.825-.928 2.113-.986 3.865h1.78c1.89 0 3.18-.037 3.866-.112.685-.075 1.083-.2 1.193-.372.11-.173.164-.495.164-.968 0-1.142-.288-2.035-.865-2.68-.576-.646-1.417-.97-2.524-.97m.66-2.316c2.142 0 3.733.508 4.77 1.522 1.038 1.014 1.557 2.686 1.557 5.014 0 1.027-.185 1.74-.554 2.144-.368.404-1.175.606-2.42.606H82.11c.023 1.88.4 3.354 1.132 4.427.733 1.07 2.026 1.607 3.882 1.607 1.73 0 3.338-.45 4.825-1.35.494.498.742 1.022.742 1.575 0 .773-.637 1.314-1.91 1.626-1.275.31-2.713.467-4.315.467-2.95 0-5.07-.626-6.354-1.877-1.286-1.25-1.928-3.357-1.928-6.32 0-2.916.723-5.22 2.17-6.907 1.446-1.69 3.46-2.534 6.044-2.534M101.73 15.36c-1.154 0-2.03.412-2.63 1.235-.6.825-.927 2.113-.985 3.865h1.78c1.89 0 3.18-.037 3.866-.112.686-.075 1.084-.2 1.194-.372.11-.173.164-.495.164-.968 0-1.142-.29-2.035-.865-2.68-.576-.646-1.417-.97-2.524-.97m.656-2.316c2.144 0 3.735.508 4.772 1.522 1.038 1.014 1.557 2.686 1.557 5.014 0 1.027-.184 1.74-.554 2.144-.367.404-1.174.606-2.42.606H98.1c.023 1.88.4 3.354 1.132 4.427.733 1.07 2.027 1.607 3.882 1.607 1.73 0 3.337-.45 4.824-1.35.496.498.744 1.022.744 1.575 0 .773-.637 1.314-1.91 1.626-1.274.31-2.712.467-4.315.467-2.95 0-5.07-.626-6.355-1.877-1.285-1.25-1.928-3.357-1.928-6.32 0-2.916.724-5.22 2.17-6.907 1.447-1.69 3.462-2.534 6.044-2.534M117.994 15.36c-1.384 0-2.384.48-3 1.443-.617.963-.926 2.626-.926 4.99 0 2.073.294 3.702.882 4.884.588 1.18 1.58 1.772 2.975 1.772.737 0 1.41-.15 2.022-.442.61-.294 1.03-.68 1.254-1.158.226-.48.338-1.658.338-3.537v-7.055c-.415-.23-.92-.437-1.513-.622-.593-.184-1.27-.277-2.03-.277m4.027 13.677c-1.05.622-2.03 1.066-2.94 1.33-.91.267-1.85.4-2.818.4-1.96 0-3.466-.59-4.52-1.764-1.056-1.177-1.584-3.217-1.584-6.122 0-3.204.703-5.645 2.11-7.32 1.407-1.68 3.51-2.518 6.31-2.518.67 0 1.23.035 1.68.104.448.07.875.156 1.278.26 0-.854-.02-1.768-.06-2.742-.04-.974-.12-1.662-.242-2.066-.12-.403-.323-.663-.605-.778-.282-.115-.642-.173-1.08-.173-.15-.357-.225-.71-.225-1.055 0-.357.144-.58.432-.674.288-.092 1.24-.138 2.853-.138.91 0 1.528.043 1.85.13.323.086.508.247.553.484.047.236.07.642.07 1.22v12.38c0 4.403.1 6.968.303 7.694.2.726.516 1.044.942.95.16.267.242.526.242.78 0 .322-.383.628-1.15.916-.767.288-1.392.432-1.876.432-.288 0-.53-.1-.726-.302-.196-.202-.46-.677-.796-1.427M136.04 28.45c1.313 0 2.264-.497 2.852-1.488.588-.992.882-2.52.882-4.583 0-2.375-.303-4.14-.908-5.292-.605-1.152-1.645-1.73-3.12-1.73-1.315 0-2.267.497-2.855 1.488-.586.992-.88 2.525-.88 4.6 0 2.363.303 4.12.908 5.274.605 1.153 1.645 1.73 3.12 1.73m-.657 2.316c-2.5 0-4.338-.663-5.514-1.988-1.176-1.326-1.764-3.326-1.764-6 0-3.08.712-5.47 2.136-7.177 1.423-1.704 3.478-2.558 6.164-2.558 2.5 0 4.34.663 5.516 1.99 1.176 1.325 1.764 3.33 1.764 6.016 0 3.067-.712 5.453-2.136 7.16-1.423 1.705-3.478 2.558-6.165 2.558M152.13 15.013c-1.095 0-1.908.31-2.438.925-.53.617-.795 1.733-.795 3.346 0 1.384.256 2.393.77 3.026.512.635 1.316.95 2.412.95 1.163 0 2.022-.284 2.574-.854.554-.57.83-1.646.83-3.225 0-1.394-.278-2.437-.838-3.13-.56-.69-1.398-1.037-2.516-1.037m-2.8 15.926c-.405.403-.713.858-.926 1.365-.214.507-.32 1.02-.32 1.54 0 .782.236 1.348.71 1.693.472.346 1.417.52 2.834.52 2.076 0 3.64-.25 4.695-.745 1.055-.495 1.583-1.216 1.583-2.16 0-.83-.387-1.408-1.16-1.73-.772-.323-3.244-.484-7.417-.484m8.68-15.91c.644 1.154.968 2.38.968 3.684 0 1.948-.626 3.522-1.876 4.72-1.25 1.2-3.22 1.8-5.906 1.8-1.21 0-1.994.13-2.35.388-.358.26-.537.637-.537 1.133 0 .6.24 1.03.725 1.296.484.267 2.254.4 5.308.4 3.01 0 4.96.307 5.854.924.893.617 1.34 1.53 1.34 2.74 0 1.822-.95 3.263-2.845 4.323-1.896 1.06-4.833 1.592-8.81 1.592-1.936 0-3.233-.264-3.89-.788-.658-.526-.986-1.26-.986-2.205 0-.703.184-1.42.553-2.153.37-.732.88-1.438 1.538-2.118-.565-.23-1.017-.574-1.357-1.03-.34-.454-.51-1.016-.51-1.685 0-.69.22-1.327.658-1.91.438-.582 1.107-1.092 2.006-1.53-.738-.3-1.335-.835-1.79-1.608-.456-.772-.683-1.78-.683-3.026 0-2.028.624-3.692 1.87-4.99 1.244-1.296 3.116-1.944 5.618-1.944 1.384 0 2.657.225 3.822.675 1.498-.68 2.392-1.02 2.68-1.02 1.395 0 2.155.037 2.282.112.127.074.19.198.19.37 0 .3-.135.73-.406 1.29-.27.558-.524.837-.76.837-.237 0-1-.26-2.29-.778l-.417.5z"/></g><path fill="#c7b299" d="M31.786 61.43h138.57v62.856H31.787z"/></svg>