<svg width="1442" height="1442" viewBox="0 0 1442 1442" xmlns="http://www.w3.org/2000/svg" xmlns:xlink="http://www.w3.org/1999/xlink"><title>Article_Welcome_Tile_B (1) Copy</title><defs><circle id="a" cx="396" cy="396" r="396"/><circle id="c" cx="396" cy="396" r="396"/><circle id="e" cx="396" cy="396" r="396"/><circle id="g" cx="396" cy="396" r="396"/><circle id="i" cx="396" cy="396" r="396"/><circle id="k" cx="396" cy="396" r="396"/><circle id="m" cx="396" cy="396" r="396"/><circle id="o" cx="396" cy="396" r="396"/><circle id="q" cx="396" cy="396" r="396"/></defs><g fill="none" fill-rule="evenodd"><path d="M1 1h1440v1440H1z" fill="#3367D6"/><g id="Group"><g transform="translate(325 325)"><mask id="b" fill="#fff"><use xlink:href="#a"/></mask><path d="M792 0v396H396L792 0z" id="Shape" opacity=".76" fill="#5991FC" mask="url(#b)"/></g><g transform="translate(325 325)"><mask id="d" fill="#fff"><use xlink:href="#c"/></mask><path d="M396 0h396L396 396V0z" id="Shape" opacity=".68" fill="#5991FC" mask="url(#d)"/></g><g transform="translate(325 325)"><mask id="f" fill="#fff"><use xlink:href="#e"/></mask><path d="M396 396L0 0h396v396z" id="Shape" opacity=".6" fill="#5991FC" mask="url(#f)"/></g><g transform="translate(325 325)"><mask id="h" fill="#fff"><use xlink:href="#g"/></mask><path d="M396 396H0V0l396 396z" id="Shape" opacity=".52" fill="#5991FC" mask="url(#h)"/></g><g transform="translate(325 325)"><mask id="j" fill="#fff"><use xlink:href="#i"/></mask><path d="M792 792L396 396h396v396z" id="Shape" opacity=".2" fill="#5991FC" mask="url(#j)"/></g><g transform="translate(325 325)"><mask id="l" fill="#fff"><use xlink:href="#k"/></mask><path d="M0 792V396h396L0 792z" id="Shape" opacity=".44" fill="#5991FC" mask="url(#l)"/></g><g transform="translate(325 325)"><mask id="n" fill="#fff"><use xlink:href="#m"/></mask><path d="M792 792H396V396l396 396z" id="Shape" opacity=".28" fill="#5991FC" mask="url(#n)"/></g><g transform="translate(325 325)"><mask id="p" fill="#fff"><use xlink:href="#o"/></mask><path d="M396 792H0l396-396v396z" id="Shape" opacity=".36" fill="#5991FC" mask="url(#p)"/></g><g transform="translate(325 325)"><mask id="r" fill="#fff"><use xlink:href="#q"/></mask><path d="M385.3 373.7c-2.5 7.1-4.9 14.9-4.9 24.2 0 20.7 12.5 31.6 22.7 43-30.1 2-86.2 7.7-127.6 33-39.5 23.5-51.8 57.5-51.8 81.5 0 49.5 47.2 95.1 144 95.1 114.9 0 176.1-63 176.1-125.7 0-46.3-27.2-68.9-56.5-93.6l-24.1-18.6c-7.3-6-20.1-14-20.1-28.7 0-14.8 10.2-26.1 18.8-32.7 28.7-22.3 56.2-46.1 56.2-95.4 0-46.7-28-71.3-44.6-85.7h38l28.1-28H402.3c-95.9 0-144.9 59.7-144.9 126 0 51.2 39.5 105.9 109.7 105.9 5.7-.3 18.2-.3 18.2-.3zm12.9-18.7c-55.6 0-85.9-67.6-85.9-119.1 0-48.9 29.6-71.7 60.6-71.7 59.6 0 90.4 76.9 90.4 123-.1 56.9-46.7 67.8-65.1 67.8zm2.2 267c-71.4 0-119.1-34.2-119.1-81.7 0-47.3 44.2-63.4 58.9-68.7 28-9.4 64.1-10.6 70.2-10.6 6.6 0 9.9 0 15.2.5 50.8 36.3 72.2 54.2 72.2 88.3.1 38.1-33.4 72.2-97.4 72.2z" id="Shape" fill="#5991FC" mask="url(#r)"/></g><path d="M710.3 698.7c-2.5 7.1-4.9 14.9-4.9 24.2 0 20.7 12.5 31.6 22.7 43-30.1 2-86.2 7.7-127.6 33-39.5 23.5-51.8 57.5-51.8 81.5 0 49.5 47.2 95.1 144 95.1 114.9 0 176.1-63 176.1-125.7 0-46.3-27.2-68.9-56.5-93.6l-24.1-18.6c-7.3-6-20.1-14-20.1-28.7 0-14.8 10.2-26.1 18.8-32.7 28.7-22.3 56.2-46.1 56.2-95.4 0-46.7-28-71.3-44.6-85.7h38l28.1-28H727.3c-95.9 0-144.9 59.7-144.9 126 0 51.2 39.5 105.9 109.7 105.9 5.7-.3 18.2-.3 18.2-.3zm12.9-18.7c-55.6 0-85.9-67.6-85.9-119.1 0-48.9 29.6-71.7 60.6-71.7 59.6 0 90.4 76.9 90.4 123-.1 56.9-46.7 67.8-65.1 67.8zm2.2 267c-71.4 0-119.1-34.2-119.1-81.7 0-47.3 44.2-63.4 58.9-68.7 28-9.4 64.1-10.6 70.2-10.6 6.6 0 9.9 0 15.2.5 50.8 36.3 72.2 54.2 72.2 88.3.1 38.1-33.4 72.2-97.4 72.2z" id="Shape" opacity=".1" fill="#FFF"/></g><g stroke="#FFF" stroke-width="1.5" transform="translate(1 1)"><path d="M0 466h1440M0 975h1440M0 0l1440 1440M1440 0L0 1440M846 0v1440M594 0v1440M1440 846H0M1440 594H0" id="Shape" opacity=".2"/><circle id="Oval" opacity=".2" cx="720" cy="720" r="180"/><path d="M0 720h1440M720 0v1440" id="Shape" opacity=".4"/><circle opacity=".4" cx="720" cy="720" r="396"/><path d="M1008 378c29.2 0 53 23.8 53 53v576c0 29.2-23.8 53-53 53H432c-29.2 0-53-23.8-53-53V431c0-29.2 23.8-53 53-53h576z" id="Shape" opacity=".4"/><path d="M954 324H486c-29.7 0-54 24.3-54 54v684c0 29.7 24.3 54 54 54h468c29.7 0 54-24.3 54-54V378c0-29.7-24.3-54-54-54z" id="Shape" opacity=".4"/><path d="M1062 432H378c-29.7 0-54 24.3-54 54v468c0 29.7 24.3 54 54 54h684c29.7 0 54-24.3 54-54V486c0-29.7-24.3-54-54-54z" opacity=".4"/></g></g></svg>