<svg xmlns="http://www.w3.org/2000/svg" viewBox="0 -360 1440 1440"><path fill="#BDBDBD" d="M1065.7 636.6h-776V194.7c0-21.4 17.4-38.8 38.8-38.8h698.4c21.4 0 38.8 17.4 38.8 38.8v441.9z"/><defs><path id="a" d="M1065.7 636.6h-776V194.7c0-21.4 17.4-38.8 38.8-38.8h698.4c21.4 0 38.8 17.4 38.8 38.8v441.9z"/></defs><path fill="#37474F" d="M336.7 204.5h681.9v383.6H336.7z"/><path fill="#999" d="M1086.8 686.8H268.6c-18.4 0-33.4-14.9-33.4-33.4v-10.5c0-3.5 2.8-6.3 6.3-6.3h872.4c3.5 0 6.3 2.8 6.3 6.3v10.5c0 18.5-14.9 33.4-33.4 33.4z"/><defs><path id="b" d="M1086.8 686.8H268.6c-18.4 0-33.4-14.9-33.4-33.4v-10.5c0-3.5 2.8-6.3 6.3-6.3h872.4c3.5 0 6.3 2.8 6.3 6.3v10.5c0 18.5-14.9 33.4-33.4 33.4z"/></defs><circle fill="#1DE9B6" cx="973.4" cy="513.1" r="23.9"/><circle cx="677.7" cy="180.2" r="6.6"/><g fill="#03A9F4"><path d="M386.8 248h179.7v16.1H386.8zM442.4 283.8h124.1v16.1H442.4zM442.4 352.1h264.7v16.1H442.4zM442.4 316.3h215.9v16.1H442.4zM497.7 385.1h179.7v16.1H497.7zM442.4 420.9h303.7V437H442.4zM386.8 489.3h122.7v16.1H386.8zM496.4 453.4h181.2v16.1H496.4zM386.8 525.1h76.9v16.1h-76.9z"/></g><g><path fill="#212121" d="M1115.9 716.8H940.7c-17.8 0-32.3-14.4-32.3-32.3V301.2c0-17.8 14.4-32.3 32.3-32.3h175.2c17.8 0 32.3 14.4 32.3 32.3v383.3c0 17.9-14.4 32.3-32.3 32.3z"/><defs opacity=".075"><path id="c" opacity=".075" d="M1115.9 716.8H940.7c-17.8 0-32.3-14.4-32.3-32.3V301.2c0-17.8 14.4-32.3 32.3-32.3h175.2c17.8 0 32.3 14.4 32.3 32.3v383.3c0 17.9-14.4 32.3-32.3 32.3z"/></defs><path fill="#03A9F4" d="M922.9 306.7h213.3v380.1H922.9z"/><defs><path id="d" d="M922.9 306.7h213.3v380.1H922.9z"/></defs><circle cx="1028.3" cy="285.9" r="5.2"/><g fill="#FFF"><circle cx="976.8" cy="496.7" r="35.9"/><circle opacity=".8" cx="1029.6" cy="496.7" r="35.9"/><circle opacity=".4" cx="1082.3" cy="496.7" r="35.9"/></g></g></svg>