<svg xmlns="http://www.w3.org/2000/svg" xmlns:xlink="http://www.w3.org/1999/xlink" viewBox="0 -360 1440 1440"><path fill="#262626" d="M592.5 174.8v98.7c0 5.5 4.5 10 10 10h45.7c5.5 0 10-4.5 10-10v-98.7h-65.7zM658.2 36.5c0-5.5-4.5-10-10-10h-45.7c-5.5 0-10 4.5-10 10v138.3h65.7V36.5z"/><circle fill="#848484" cx="625.3" cy="155" r="69.9"/><circle fill="#4DD0E1" cx="625.3" cy="155" r="57.7"/><path fill="#FFF" d="M625.3 212.7c25.1 0 46.4-16 54.4-38.4H571c7.9 22.3 29.2 38.4 54.3 38.4z"/><g><circle fill="#1DE9B6" cx="648.1" cy="174.8" r="14"/></g><g><path fill="#444" d="M286.1 235.4c0-11.2 9.2-20.4 20.4-20.4H525c11.2 0 20.4 9.2 20.4 20.4v339.3c0 11.2-9.2 20.4-20.4 20.4H306.5c-11.2 0-20.4-9.2-20.4-20.4V235.4z"/><defs><path id="a" d="M299.9 248.2h231.3v313.7H299.9z"/></defs><clipPath id="b"><use xlink:href="#a" overflow="visible"/></clipPath><g clip-path="url(#b)"><path fill="#00B0FF" d="M415.702 405.084L265.585 555.2 115.468 405.085l150.117-150.118z"/><path fill="#80D8FF" d="M565.855 254.864L415.738 404.982 265.62 254.864 415.74 104.747z"/><path fill="#0097A7" d="M516.935 604.152L415.678 705.41 265.56 555.29 366.82 454.035z"/><path fill="#FFEB3B" d="M716.023 405.135l-199.05 199.048-150.116-150.117 199.05-199.05z"/></g><circle cx="415.7" cy="231.6" r="3"/></g><g><path fill="#444" d="M1039 148.8v121.5c0 12.3-10 22.4-22.4 22.4H750.9c-12.3 0-22.4-10-22.4-22.4V148.8c0-12.4 10-22.4 22.4-22.4h265.8c12.3 0 22.3 10 22.3 22.4z"/><defs><path id="c" d="M752 135.6h263.6v147.9H752z"/></defs><clipPath id="d"><use xlink:href="#c" overflow="visible"/></clipPath><g clip-path="url(#d)"><path fill="#00B0FF" d="M883.76 209.574l122.327 122.33L883.76 454.23 761.43 331.904z"/><path fill="#80D8FF" d="M761.445 87.275l122.328 122.33L761.445 331.93 639.117 209.604z"/><path fill="#0097A7" d="M1045.91 127.1l82.448 82.448-122.33 122.328-82.446-82.448z"/><path fill="#FFEB3B" d="M883.722-35.082l162.138 162.138-122.328 122.328L761.394 87.246z"/></g><circle cx="740.2" cy="209.5" r="3.6"/></g><g><path fill="#444" d="M1131.9 669.4H591.6V361.7c0-14.9 12.1-27 27-27h486.3c14.9 0 27 12.1 27 27v307.7z"/><path fill="#FAFAFA" d="M624.3 368.5h474.8v267.1H624.3z"/><path fill="#999" d="M1146.6 704.4H576.9c-12.8 0-23.2-10.4-23.2-23.2v-7.3c0-2.4 2-4.4 4.4-4.4h607.4c2.4 0 4.4 2 4.4 4.4v7.3c-.1 12.8-10.5 23.2-23.3 23.2z"/><path fill="#4DD0E1" d="M624.3 368.5h474.8V405H624.3z"/><path d="M624.3 599.1h474.8v36.5H624.3z"/><circle fill="#33AC71" cx="642" cy="617.3" r="4.3"/><circle fill="#999" cx="661.5" cy="617.3" r="4.3"/><circle fill="#26C6DA" cx="681" cy="617.3" r="4.3"/><circle fill="#4285F4" cx="700.5" cy="617.3" r="4.3"/><circle fill="#F44336" cx="720" cy="617.3" r="4.3"/><circle fill="#FFF" cx="739.5" cy="617.3" r="4.3"/><g><circle fill="#1DE9B6" cx="1067.6" cy="405.1" r="16.6"/></g><circle cx="861.8" cy="351.6" r="4.6"/></g></svg>