<svg xmlns="http://www.w3.org/2000/svg" xmlns:xlink="http://www.w3.org/1999/xlink" width="1440" height="1440" viewBox="0 0 1440 1440"><path fill="#424242" d="M426.96 599.11h565.43v84.24H426.96z"/><path opacity=".2" fill="#FFF" d="M426.96 599.11h565.43v28.08H426.96z"/><path opacity=".1" d="M426.96 655.27h565.43v28.08H426.96z"/><path fill="#FADA80" d="M992.39 599.11h99.03v84.24h-99.03z"/><path fill="#FFE0B2" d="M426.96 683.35v-84.24l-139.59 42.12"/><defs><path id="a" d="M426.96 683.35v-84.24l-139.59 42.12z"/></defs><clipPath id="b"><use xlink:href="#a" overflow="visible"/></clipPath><path clip-path="url(#b)" d="M275.58 613.15h75.1v56.16h-75.1z"/><path fill="#212121" d="M1153.44 665.25v-48.03c0-10-8.11-18.11-18.11-18.11h-43.9v84.24h43.9c10 0 18.11-8.1 18.11-18.1z"/><g opacity=".3" fill="none" stroke="#000" stroke-width="4.958" stroke-miterlimit="10"><path opacity=".5" d="M1058.42 599.11v84.24M1025.41 599.11v84.24"/></g><g><path fill="#E0E0E0" d="M287.08 757.32h866.36v167.51H287.08z"/><g opacity=".3" fill="none" stroke="#000" stroke-width="5.728" stroke-miterlimit="10"><path d="M309.12 757.32v61.71M338.49 757.32v30.85M367.85 757.32v30.85M397.22 757.32v30.85M426.59 757.32v61.71M455.95 757.32v30.85M485.32 757.32v30.85M514.69 757.32v30.85M544.05 757.32v61.71M573.42 757.32v30.85M602.79 757.32v30.85M632.16 757.32v30.85M661.52 757.32v61.71M690.89 757.32v30.85M720.26 757.32v30.85M749.62 757.32v30.85M778.99 757.32v61.71M808.36 757.32v30.85M837.72 757.32v30.85M867.09 757.32v30.85M896.46 757.32v61.71M925.82 757.32v30.85M955.19 757.32v30.85M984.56 757.32v30.85M1013.92 757.32v61.71M1043.29 757.32v30.85M1072.66 757.32v30.85M1102.02 757.32v30.85M1131.39 757.32v61.71"/></g></g></svg>