<?xml version="1.0" encoding="utf-8"?>
<!-- Generator: Adobe Illustrator 18.0.0, SVG Export Plug-In . SVG Version: 6.00 Build 0)  -->
<!DOCTYPE svg PUBLIC "-//W3C//DTD SVG 1.1//EN" "http://www.w3.org/Graphics/SVG/1.1/DTD/svg11.dtd">
<svg version="1.1" id="Layer_1" xmlns="http://www.w3.org/2000/svg" xmlns:xlink="http://www.w3.org/1999/xlink" x="0px" y="0px"
	 width="1440px" height="1440px" viewBox="0 0 1440 1440" enable-background="new 0 0 1440 1440" xml:space="preserve">
<g id="Safety" display="none">
	<g display="inline">
		<rect x="287.26" y="286.85" opacity="0.4" fill="#FFFFFF" enable-background="new    " width="866" height="866"/>
		<rect x="0.26" y="-0.15" fill="none" width="1440" height="1440"/>
	</g>
</g>
<g id="Art">
	<g>
		<g>
			<rect x="426.96" y="599.11" fill="#424242" width="565.43" height="84.24"/>
			<rect x="426.96" y="599.11" opacity="0.2" fill="#FFFFFF" enable-background="new    " width="565.43" height="28.08"/>
			<rect x="426.96" y="655.27" opacity="0.1" enable-background="new    " width="565.43" height="28.08"/>
			<rect x="992.39" y="599.11" fill="#FADA80" width="99.03" height="84.24"/>
			<g>
				<g>
					<polygon id="SVGID_55_" fill="#FFE0B2" points="426.96,683.35 426.96,599.11 287.37,641.23 					"/>
				</g>
				<g>
					<defs>
						<polygon id="SVGID_1_" points="426.96,683.35 426.96,599.11 287.37,641.23 						"/>
					</defs>
					<clipPath id="SVGID_2_">
						<use xlink:href="#SVGID_1_"  overflow="visible"/>
					</clipPath>
					<rect x="275.58" y="613.15" clip-path="url(#SVGID_2_)" width="75.1" height="56.16"/>
				</g>
			</g>
			<path fill="#212121" d="M1153.44,665.25v-48.03c0-10-8.11-18.11-18.11-18.11h-43.9v84.24h43.9
				C1145.33,683.35,1153.44,675.25,1153.44,665.25z"/>
			<g opacity="0.3">
				
					<line opacity="0.5" fill="none" stroke="#000000" stroke-width="4.9576" stroke-miterlimit="10" enable-background="new    " x1="1058.42" y1="599.11" x2="1058.42" y2="683.35"/>
				
					<line opacity="0.5" fill="none" stroke="#000000" stroke-width="4.9576" stroke-miterlimit="10" enable-background="new    " x1="1025.41" y1="599.11" x2="1025.41" y2="683.35"/>
			</g>
		</g>
		<g>
			<rect x="287.08" y="757.32" fill="#E0E0E0" width="866.36" height="167.51"/>
			<g opacity="0.3">
				
					<line fill="none" stroke="#000000" stroke-width="5.7283" stroke-miterlimit="10" x1="309.12" y1="757.32" x2="309.12" y2="819.03"/>
				
					<line fill="none" stroke="#000000" stroke-width="5.7283" stroke-miterlimit="10" x1="338.49" y1="757.32" x2="338.49" y2="788.17"/>
				
					<line fill="none" stroke="#000000" stroke-width="5.7283" stroke-miterlimit="10" x1="367.85" y1="757.32" x2="367.85" y2="788.17"/>
				
					<line fill="none" stroke="#000000" stroke-width="5.7283" stroke-miterlimit="10" x1="397.22" y1="757.32" x2="397.22" y2="788.17"/>
				
					<line fill="none" stroke="#000000" stroke-width="5.7283" stroke-miterlimit="10" x1="426.59" y1="757.32" x2="426.59" y2="819.03"/>
				
					<line fill="none" stroke="#000000" stroke-width="5.7283" stroke-miterlimit="10" x1="455.95" y1="757.32" x2="455.95" y2="788.17"/>
				
					<line fill="none" stroke="#000000" stroke-width="5.7283" stroke-miterlimit="10" x1="485.32" y1="757.32" x2="485.32" y2="788.17"/>
				
					<line fill="none" stroke="#000000" stroke-width="5.7283" stroke-miterlimit="10" x1="514.69" y1="757.32" x2="514.69" y2="788.17"/>
				
					<line fill="none" stroke="#000000" stroke-width="5.7283" stroke-miterlimit="10" x1="544.05" y1="757.32" x2="544.05" y2="819.03"/>
				
					<line fill="none" stroke="#000000" stroke-width="5.7283" stroke-miterlimit="10" x1="573.42" y1="757.32" x2="573.42" y2="788.17"/>
				
					<line fill="none" stroke="#000000" stroke-width="5.7283" stroke-miterlimit="10" x1="602.79" y1="757.32" x2="602.79" y2="788.17"/>
				
					<line fill="none" stroke="#000000" stroke-width="5.7283" stroke-miterlimit="10" x1="632.16" y1="757.32" x2="632.16" y2="788.17"/>
				
					<line fill="none" stroke="#000000" stroke-width="5.7283" stroke-miterlimit="10" x1="661.52" y1="757.32" x2="661.52" y2="819.03"/>
				
					<line fill="none" stroke="#000000" stroke-width="5.7283" stroke-miterlimit="10" x1="690.89" y1="757.32" x2="690.89" y2="788.17"/>
				
					<line fill="none" stroke="#000000" stroke-width="5.7283" stroke-miterlimit="10" x1="720.26" y1="757.32" x2="720.26" y2="788.17"/>
				
					<line fill="none" stroke="#000000" stroke-width="5.7283" stroke-miterlimit="10" x1="749.62" y1="757.32" x2="749.62" y2="788.17"/>
				
					<line fill="none" stroke="#000000" stroke-width="5.7283" stroke-miterlimit="10" x1="778.99" y1="757.32" x2="778.99" y2="819.03"/>
				
					<line fill="none" stroke="#000000" stroke-width="5.7283" stroke-miterlimit="10" x1="808.36" y1="757.32" x2="808.36" y2="788.17"/>
				
					<line fill="none" stroke="#000000" stroke-width="5.7283" stroke-miterlimit="10" x1="837.72" y1="757.32" x2="837.72" y2="788.17"/>
				
					<line fill="none" stroke="#000000" stroke-width="5.7283" stroke-miterlimit="10" x1="867.09" y1="757.32" x2="867.09" y2="788.17"/>
				
					<line fill="none" stroke="#000000" stroke-width="5.7283" stroke-miterlimit="10" x1="896.46" y1="757.32" x2="896.46" y2="819.03"/>
				
					<line fill="none" stroke="#000000" stroke-width="5.7283" stroke-miterlimit="10" x1="925.82" y1="757.32" x2="925.82" y2="788.17"/>
				
					<line fill="none" stroke="#000000" stroke-width="5.7283" stroke-miterlimit="10" x1="955.19" y1="757.32" x2="955.19" y2="788.17"/>
				
					<line fill="none" stroke="#000000" stroke-width="5.7283" stroke-miterlimit="10" x1="984.56" y1="757.32" x2="984.56" y2="788.17"/>
				
					<line fill="none" stroke="#000000" stroke-width="5.7283" stroke-miterlimit="10" x1="1013.92" y1="757.32" x2="1013.92" y2="819.03"/>
				
					<line fill="none" stroke="#000000" stroke-width="5.7283" stroke-miterlimit="10" x1="1043.29" y1="757.32" x2="1043.29" y2="788.17"/>
				
					<line fill="none" stroke="#000000" stroke-width="5.7283" stroke-miterlimit="10" x1="1072.66" y1="757.32" x2="1072.66" y2="788.17"/>
				
					<line fill="none" stroke="#000000" stroke-width="5.7283" stroke-miterlimit="10" x1="1102.02" y1="757.32" x2="1102.02" y2="788.17"/>
				
					<line fill="none" stroke="#000000" stroke-width="5.7283" stroke-miterlimit="10" x1="1131.39" y1="757.32" x2="1131.39" y2="819.03"/>
			</g>
		</g>
	</g>
</g>
</svg>
