<svg xmlns="http://www.w3.org/2000/svg" width="400" height="300" viewBox="0 0 400.00001 299.99999"><path d="M255.706 280.97c-.71-.264-1.647-1.255-2.107-2.228-.456-.964-1.158-1.88-1.56-2.036-1.183-.458-1.427-3.405-.584-7.06.882-3.827 1.81-12.278 1.81-16.492 0-2.45.402-3.635 3.098-9.11l3.1-6.292.16-7.408c.145-6.73.016-8.103-1.4-15.006-1.274-6.198-1.5-8.22-1.227-10.967l.333-3.366-5.13.017c-5.56.02-9.943-.706-11.055-1.83-.386-.388-.838-.706-1.006-.706-.168 0-1.492-.885-2.943-1.966-3.196-2.382-8.423-7.796-11.142-11.54-1.1-1.513-2.194-2.982-2.433-3.265-.624-.735-2.587-8.296-2.587-9.962 0-1.19.112-1.307.743-.78.41.344.745.878.745 1.188.003.932 2.997 6.38 5.123 9.318 4.04 5.583 10.992 10.94 16.938 13.047 4.025 1.427 9.746 1.314 13.28-.262 1.505-.67 2.816-1.445 2.912-1.72.096-.275 2.852-3.356 6.125-6.848 5.294-5.648 9.966-11.653 12.15-15.618.41-.745 1.34-2.142 2.065-3.104 2-2.658 4.717-9.8 5.326-14.007.573-3.958.405-9.076-.404-12.317l-.974-3.896c-.277-1.107-.365-4.635-.2-8.13.266-5.693.22-6.17-.595-6.17-.486 0-1.747.787-2.804 1.75-1.364 1.243-2.388 1.75-3.53 1.75-.886 0-2.752.44-4.146.973l-2.534.972-.657-1.238c-.573-1.08-.513-1.566.476-3.848.623-1.437 1.744-4.3 2.49-6.363.746-2.064 1.7-4.427 2.123-5.253.42-.825.914-2.288 1.096-3.25.183-.964.8-3.283 1.37-5.154.798-2.61.917-3.66.514-4.502-1.2-2.516-1.598-4.74-1.598-8.944 0-4.408.864-7.913 1.952-7.913.283 0 1.095-.927 1.805-2.06 1.003-1.605 1.446-3.3 1.99-7.63.806-6.384 1.287-7.817 2.625-7.817 1.765 0 5.125 2.232 6.59 4.377.796 1.17 2.02 2.746 2.715 3.502.696.756 1.583 1.994 1.97 2.75.858 1.67 2.19 1.768 4.916.366 1.84-.947 2.002-.957 2.583-.155.886 1.223.768 3.237-.345 5.855-1.385 3.26-2.032 9.153-1.767 16.1.248 6.473.7 8.285 3.264 13.065 1.15 2.143 2.14 3.307 3.285 3.858.9.435 1.638 1.098 1.638 1.475s.547 1.28 1.216 2.01c.905.985 1.7 1.322 3.108 1.322 2.363 0 5.08 1.788 6.63 4.36 1.59 2.637 6.835 8.56 7.877 8.893.474.152 1.226.135 1.672-.037.855-.33 4.906-6.182 5.71-8.247.26-.67 2.14-3.324 4.178-5.9 3.706-4.68 5.31-8.05 5.31-11.156 0-.808.365-2.183.813-3.056.696-1.36.76-2.56.44-8.354-.425-7.703-.4-22.666.05-32.307.343-7.298.11-8.2-2.873-11.062-3.337-3.2-6.932-5.133-14.19-7.627-9.59-3.294-15.99-5.143-16.764-4.843-1.858.72-8.11-2.096-10.806-4.865-1.728-1.774-4.72-4.172-9.48-7.595-.946-.68-.924-.713.497-.707 2.94.013 7.995 1.953 9.173 3.52 1.002 1.335 9.276 5.257 11.98 5.68 1.184.184 3.156.647 4.383 1.028 1.227.382 4 .932 6.16 1.224 2.163.292 4.595.865 5.407 1.274.812.408 4.064 1.205 7.227 1.77 3.163.566 6.696 1.244 7.852 1.507 1.826.417 2.232.347 3.107-.536 1.076-1.086 2.293-5.888 2.97-11.725.44-3.782 1.41-5.126 3.225-4.47.546.197 3.05.448 5.563.558 4.378.192 4.624.264 5.84 1.723 1.237 1.483 1.344 1.512 4.107 1.115 1.56-.223 3.04-.417 3.29-.43.25-.013.866.722 1.37 1.634.82 1.478.89 2.46.638 9.032-.155 4.055-.052 9.274.228 11.598.28 2.323.642 8.84.802 14.48.16 5.64.514 15.093.787 21.01.747 16.212.746 41.772-.004 55.524-.368 6.74-.74 16.645-.83 22.01-.222 13.468-.696 24.57-1.074 25.188-.175.285-.49 8.634-.702 18.554-.212 9.92-.667 20.287-1.012 23.038-.762 6.068-.766 13.18-.014 22.51.865 10.733 1.913 15.946 3.602 17.913.282.33.915 1.385 1.408 2.348.493.963 1.765 2.253 2.827 2.868 8.134 5.74-5.796 4.423-5.29 5.68-6.27-1.46-13.535-.993-16.007-.473-12.297.527-22.653-1.994-34.29-1.686l-4.463.24.992-1.125c.545-.618 2.115-1.663 3.488-2.322 3.082-1.477 10.425-8.85 10.926-10.97.19-.807.614-1.804.942-2.217.876-1.104 4.016-8.9 4.634-11.505.294-1.238.67-5.853.838-10.255.424-11.173.596-14.297 1.563-28.513.468-6.878.904-14.982.97-18.008.066-3.026.375-6.966.686-8.754.31-1.788.648-5.39.75-8.004.79-20.478.93-25.17.956-31.966.028-7.33-.018-7.712-.962-7.863-.882-.142-3.065.35-5.206 1.174-.41.156-2.054.758-3.655 1.336-2.765 1-2.993 1.213-4.54 4.258-1.864 3.665-2.71 4.353-4.296 3.496-.967-.522-5.597-1.928-6.402-1.944-.165-.003-.59 2.414-.943 5.372-.39 3.253-.974 5.87-1.48 6.628-1.31 1.963-2.98 5.728-2.98 6.717 0 1.074-1.995 4.788-2.57 4.788-.224 0-.406.237-.406.525 0 .288-.78 1.756-1.735 3.26-.954 1.507-1.735 3.064-1.735 3.46 0 .4-.422.952-.938 1.23-.515.28-2.332 2.144-4.038 4.145-1.706 2-4.81 5.46-6.897 7.688-5.538 5.906-9.742 12.467-11.348 17.71-.773 2.52-3.06 14.967-3.06 16.65 0 1.558-2.217 6.543-3.594 8.08-.477.534-.867 1.26-.867 1.615 0 .354-.558 1.013-1.24 1.464-.682.45-1.24 1.107-1.24 1.458 0 .352-.334.77-.743.928-.41.158-.764.69-.788 1.18-.025.49-1.335 2.015-2.912 3.39-1.578 1.377-3.135 2.965-3.46 3.53-.325.567-1.58 1.575-2.79 2.24-1.21.668-2.2 1.333-2.2 1.48 0 .146-.78 1.163-1.736 2.26-2.405 2.764-4.35 7.105-4.048 9.035.396 2.537 1.973 5.262 3.554 6.14.818.455 1.562.996 1.653 1.203.09.207.48.376.867.376 1.28 0 .73 1.403-.967 2.46-.92.573-2.48 1.04-3.47 1.04-1.47 0-1.802.185-1.802 1.002 0 .55.168 1.002.373 1.004.565.004 2.107 2.952 2.107 4.027 0 .618-.72 1.3-2.076 1.96-2.293 1.117-2.56 1.144-4.408.46zm91.182-150.906l1.828-.867.143-4.374c.132-4.05.07-4.375-.822-4.375-1.825 0-7.008 7.432-7.008 10.05 0 .987.18 1.054 2.015.758 1.108-.18 2.838-.715 3.843-1.192z"/><path d="M183.153 277.453l10.845-.107c1.008-.065 1.678-.276 1.677-.53-.007-1.462-1.15-7.492-1.782-9.412-1.684-5.107-4.91-9.57-9.53-13.178l-1.237-.967 1.23.202c4.4.73 9.575 5.99 12.23 12.425 1.02 2.477 1.09 2.13.19-.953-1.754-6.008-4.824-10.626-9.23-13.884-1.305-.965-1.757-1.475-1.374-1.55.953-.188 4.41 1.537 6.033 3.01.84.76 2.742 1.962 4.226 2.667 4.212 2 7.14 5.54 9.233 11.157l.99 2.657-.205-3.35c-.33-5.395-1.14-10.308-2.868-17.384-.89-3.647-1.525-6.724-1.41-6.838.657-.656 3.26 4.073 5.18 9.417 1.003 2.788 1.06 2.873.85 1.23-.125-.97-.925-4.53-1.78-7.91-.852-3.38-1.55-6.355-1.55-6.61 0-1.692 2.293 1.913 4.28 6.727 3.208 7.77 4.663 16.357 4.49 26.51-.107 6.344.128 8.16.626 4.847.366-2.44-.082-13.162-.722-17.25-.306-1.956-1.18-6-1.94-8.984-.763-2.985-1.313-5.5-1.224-5.59.325-.324 1.188.916 2.557 3.675 2.82 5.69 4.57 12.903 4.91 20.272l.22 4.755 1.187-3.52c1.382-4.102 2.574-9.6 2.61-12.04.014-.94.143-2.01.288-2.38.234-.593.308-.553.65.354.21.564.54 1.738.73 2.61.338 1.56.344 1.567.39.353.046-1.15.678-2.723.78-1.94.096.734.633-2.532.652-3.966.028-2.038.585-1.89 1.052.282.523 2.43.48 4.978-.152 9.176-.33 2.184-.413 3.764-.218 4.11.394.704 1.385-3.38 1.8-7.414.154-1.512.362-2.83.46-2.928.1-.1.38.648.623 1.66.645 2.686.214 7.12-1.238 12.72-.686 2.647-1.247 5.46-1.247 6.252 0 1.437.004 1.44 1.36 1.44h1.362l.25-9.08c.243-8.773.657-14.972 1.123-16.826.613-2.438 1.31.234 1.923 7.39.216 2.517.462 4.646.546 4.73.083.084.157-1.66.162-3.873.004-2.214.162-5.612.348-7.552.605-6.27 1.08-7.054 1.772-2.91.234 1.407.565 2.73.735 2.94.52.65 1.07 5.61 1.5 13.546l.408 7.582.8-3.21c.44-1.764.982-4.987 1.204-7.16.344-3.386.315-4.482-.203-7.66-.334-2.038-.693-3.933-.8-4.21-.106-.277-.035-.503.16-.503.45 0 1.8 2.834 2.432 5.11.268.97.588 3.4.71 5.4l.223 3.636.768-2.402c.897-2.806 1.77-4.573 2.038-4.126.104.173-.026 1.822-.29 3.664-.667 4.68-.63 5.52.162 3.505.347-.884.885-2.074 1.195-2.645.31-.57.914-2.623 1.34-4.562.914-4.16 2.074-7.53 3.76-10.93 1.217-2.455 2.065-3.636 2.382-3.32.09.09-.38 2.303-1.044 4.916-2.143 8.41-2.132 8.23-.725 11.84 1.327 3.405 1.522 3.348.736-.214-.278-1.26-.506-2.69-.507-3.174 0-.86.012-.864.53-.182.29.385.866 1.62 1.276 2.742.41 1.122.816 1.972.9 1.887.085-.084-.267-2.237-.782-4.783-.513-2.547-.862-4.822-.773-5.056.248-.652 2.515 4.436 3.74 8.39 1.277 4.13 2.383 9.285 2.685 12.517.437 4.687.393 4.584 1.963 4.584 1.612 0 1.587.103.873-3.62-.875-4.562-1.932-8.57-4.113-15.597-2.264-7.293-2.678-8.992-2.194-8.992.175 0 .61.494.967 1.097.45.758.733.962.92.662.18-.29.6.142 1.25 1.283.54.945 1.257 2.194 1.595 2.776 1.16 2 3.474 7.8 4.715 11.832.684 2.22 1.25 3.79 1.26 3.488.032-1.112-2.478-10.587-4.558-17.2-2.137-6.79-2.383-7.817-1.88-7.816.723.002 4.497 7.286 6.473 12.496l1.33 3.504.23-1.74c.64-4.824 2.405-9.907 3.567-10.277.47-.15.383 1.867-.204 4.67-.58 2.758-.576 8.83.005 12.15l.464 2.645.54-1.234c.376-.862.493-1.98.387-3.703-.293-4.78-.104-9.194.51-11.884.637-2.8 2.712-7.465 2.973-6.685.08.242-.1 1.822-.404 3.51-.518 2.878-.686 5.483-.598 9.243l.037 1.587 1.42-2.644c.783-1.455 1.455-2.79 1.494-2.968.09-.403 1.233-1.616 1.524-1.616.118 0 .12.247.003.55-.153.398.21.735 1.316 1.223.84.37 1.936.995 2.435 1.387.796.623.936.642 1.123.157.648-1.684.244-2.55-1.99-4.264-1.448-1.11-2.01-1.73-1.64-1.8.997-.192 4.476 1.59 6.22 3.187.93.85 2.433 1.822 3.342 2.16 4.335 1.603 7.916 5.943 10.215 12.38.75 2.104.797 1.6.323-3.522-.515-5.555-1.208-9.414-2.896-16.118-.816-3.24-1.36-6.015-1.21-6.165.15-.15.575.122.945.604.846 1.102 3.406 6.294 3.722 7.55.13.518.302.877.38.798.235-.234-1.54-8.2-2.84-12.76-1.543-5.4-1.773-6.523-1.34-6.523.85 0 4.477 6.524 6.175 11.107 3.337 9.012 4.695 17.78 4.424 28.57-.127 5.04-.065 6.515.275 6.515.65 0 .993-5.274.697-10.716-.313-5.742-1.223-11.375-2.852-17.658-.693-2.674-1.16-4.96-1.04-5.08.493-.492 2.828 3.75 4.206 7.644 1.924 5.43 2.9 10.224 3.262 16.035l.248 3.96.982-3.055c1.244-3.867 2.422-9.593 2.43-11.81.01-4.024 1.217-2.44 1.722 2.266l.255 2.373.473-2.115c.26-1.164.657-3.624.88-5.466.364-3.004.453-3.266.854-2.538 1.644 2.976.48 11.618-3.08 22.9-1.147 3.633-.903 4.52.29 1.06 3.325-9.645 4.608-14.64 4.608-17.927 0-1.87.56-2.34.907-.762.117.533.282 1.188.366 1.455.084.266 1.035-1.242 2.113-3.352 2.164-4.233 3.15-5.718 3.543-5.327.284.283.026 1.244-2.864 10.663-1.907 6.215-3.492 12.586-3.937 15.827l-.224 1.627h1.46c.806 0 1.465-.12 1.467-.264.012-1.157.82-7.15 1.27-9.433 1.14-5.79 4.054-14.424 5.29-15.678.722-.735.686-.367-.556 5.6-1.06 5.098-1.207 6.625-.367 3.822.618-2.06 2.216-5.124 2.396-4.597.08.237-.183 2.044-.586 4.016-.403 1.972-.725 3.683-.715 3.8.008.12.59-1.29 1.292-3.133.796-2.09 1.255-3.884 1.222-4.77-.03-.78-.694-3.938-1.477-7.016-.783-3.078-1.327-5.692-1.21-5.808.29-.29 1.07.803 2.318 3.242 1.68 3.286 3.294 8.18 4.208 12.765.232 1.163.566 2.294.743 2.512.177.218.71 1.328 1.184 2.468 1.013 2.43 1.05 2.183.367-2.512-.613-4.218-.622-4.407-.222-4.407.353 0 1.53 2.833 2.266 5.45l.492 1.746.2-4.04c.208-4.223 1.06-7.6 2.438-9.68l.7-1.058-.152 1.234c-.085.68-.363 2.757-.618 4.618-.548 4-.138 8.948 1.158 13.957l.805 3.112.085-1.94c.5-11.545 1.198-18.964 1.82-19.385.15-.1.452-1.274.67-2.605.6-3.692.937-3.698 1.49-.026.203 1.346.477 5.382.61 8.97l.238 6.523.453-5.29c.305-3.574.34-5.688.108-6.523-.19-.68-.345-1.542-.346-1.92-.002-.662.013-.663.478-.03.466.638.49.637.86-.02.352-.63.403-.608.756.318.208.546.38 1.393.38 1.882 0 .49.45 1.868 1.002 3.063s1.546 3.508 2.21 5.14c2.173 5.35 1.6 1.564-1.083-7.17-2.518-8.19-2.72-9.02-2.186-9.02.687 0 5.52 9.513 6.896 13.575l.836 2.468.243-1.94c.134-1.066.412-2.732.617-3.702.41-1.93 2.37-6.522 2.787-6.522.554 0 .588 1.944.07 4.008-.69 2.746-.736 9.725-.09 13.27l.483 2.645.58-1.87c.465-1.5.517-2.372.26-4.407-.68-5.406.258-11.846 2.322-15.937 1.2-2.376 1.567-2.143.972.617-.622 2.887-1.08 8.573-.837 10.353l.222 1.613 1.45-2.766c.797-1.52 1.728-3.158 2.07-3.638l.617-.87-.005.87c-.002.48-.788 3.378-1.747 6.44l-1.743 5.567.727 2.895c.4 1.593.844 3.11.986 3.373.143.263.367-1.403.5-3.702.36-6.252.93-9.893 1.692-10.768.36-.414.738-.67.84-.568.486.485.885 5.086 1.1 12.71.22 7.813.28 8.375.887 8.375.6 0 .65-.37.65-4.687 0-2.577-.245-6.563-.547-8.856-.302-2.293-.44-4.27-.305-4.393.134-.122.317-.016.407.236.316.885 1.41-1.872 1.655-4.172.578-5.424 1.527-3.512 1.806 3.636.194 4.99 1.513 14.358 2.022 14.358.146 0 .266-.377.266-.838 0-.46.26-1.98.576-3.375.53-2.347.53-2.908-.015-7.536-.323-2.75-.646-5.278-.717-5.618-.2-.955.426-1.083.91-.186.24.442.78 1.817 1.2 3.057l.763 2.254 1.124-2.395c.618-1.317 1.222-2.296 1.342-2.176.12.12-.144 2.06-.588 4.31-.797 4.046-.8 4.146-.225 8.75.32 2.56.58 5.326.58 6.144v1.487H395.43v4.231h-101.66l-110.494.43zm21.713-.44c-.013-1.348-.795-6.58-1.265-8.47-1.13-4.557-4.612-10.367-7.21-12.036l-.875-.563.792 1.118c2.62 3.698 4.48 9.545 5.11 16.072l.402 4.143h1.524c.84 0 1.524-.12 1.522-.264zm18.06-.685c.198-.522.314-1.353.256-1.847-.084-.716-.224-.524-.692.95-.595 1.876-.227 2.636.435.898zm23.307-1.93c0-1.584-.058-2.814-.13-2.733-.353.402-.575 5.612-.238 5.612.225 0 .368-1.118.368-2.88zm6.362 1.733c-.002-1.37-.82-6.91-1.677-11.34l-.62-3.204-.23 1.94c-.302 2.553-.35 10.75-.072 12.43.202 1.222.308 1.32 1.41 1.32 1.11 0 1.19-.078 1.19-1.145zm23.91.53c-.1-.34-.456-1.57-.793-2.733-.536-1.853-.644-2.006-.868-1.234-.33 1.13-.39 3.306-.113 4.026.12.306.607.557 1.086.557.66 0 .826-.148.69-.617zm7.557-4.307c0-2.71-.247-6.694-.55-8.855-.558-3.996-.496-4.8.29-3.734.384.523.442.465.475-.476.03-.872-.322-1.4-1.884-2.825-1.058-.964-2.043-1.753-2.19-1.753-.384 0-3.213 9.197-3.205 10.425.005 1.01 1.2 6.06 1.506 6.364.085.083.262-1.637.395-3.824.397-6.555.935-10.055 1.675-10.906.365-.42.767-.66.893-.533.526.524.83 4.07 1.052 12.313.222 8.164.28 8.727.89 8.727.603 0 .652-.372.652-4.924zm16.048 3.073c-.618-6.297-1.898-10.62-4.21-14.227-1.254-1.955-1.348-2.027-1.637-1.247-.22.595-.064 1.5.56 3.222 1.04 2.88 1.814 6.836 2.154 11.017l.25 3.085h3.064zm36.403-.316c.27-2.566.23-7.604-.087-11.056l-.226-2.468-.785 4.055c-.687 3.546-1.07 5.955-1.663 10.49-.146 1.12-.117 1.147 1.192 1.147h1.342zm4.223-.213c-.235-3.388-.4-3.522-.433-.353-.015 1.503.113 2.733.285 2.733s.24-1.07.148-2.38zm19.337 1.537c0-1.194-1.263-7.218-2.3-10.97l-.878-3.173.175 4.376c.096 2.406.175 5.778.175 7.493v3.117h1.414c1.255 0 1.413-.094 1.413-.843zm11.92.384c-.097-.253-.465-1.483-.817-2.733-.548-1.947-.676-2.147-.887-1.392-.326 1.165-.38 4.05-.082 4.35.45.447 1.97.256 1.785-.225zm-83.146-10.646c-.984-2.692-1.603-3.6-1.603-2.352 0 .704 1.255 7.63 1.672 9.226.17.65.318.21.565-1.672.31-2.36.263-2.754-.633-5.202zm-21.513 5.397c-.113-.282-.197-.2-.214.212-.015.372.068.58.186.463.117-.117.13-.42.028-.676zm-13.788-7.406c-.113-.28-.197-.197-.214.213-.015.372.068.58.186.463.117-.117.13-.42.028-.676zm36.173-4.34c-.268-1.753-2.566-5.527-2.774-4.554-.254 1.192.36 2.928 1.59 4.504.702.9 1.31 1.636 1.35 1.636.04 0-.034-.714-.167-1.586zm3.15-2.506c-.242-.292-.742-.69-1.11-.888-.534-.285-.47-.056.325 1.14.725 1.093 1.024 1.332 1.11.888.065-.335-.08-.848-.324-1.14z" fill="#004600"/><path d="M56.244 136.64c11.86 0 21.468-11.416 21.468-25.51 0-14.094-9.607-25.51-21.468-25.51-11.862 0-21.47 11.416-21.47 25.51 0 14.094 9.608 25.51 21.47 25.51zm0 12.754c-14.33 0-42.938 8.546-42.938 25.51v12.754H99.18v-12.755c0-16.963-28.606-25.51-42.936-25.51z"/><path d="M-8.162 60.112H120.65v153.055H-8.162z" fill="none"/><g><path d="M189.874 144.49L178.2 157.54l11.674 13.05v-9.788h20.51v-6.525h-20.51v-9.788zm40.993-6.527l-11.675-13.05v9.787h-20.51v6.526h20.51v9.788l11.675-13.05z"/><path d="M169.42 108.6h70.225v78.304H169.42z" fill="none"/></g><g><path d="M90.812 115.107h82.345v76.284H90.812z" fill="none"/><path d="M149.14 118.317l-34.31-.032c-3.775 0-6.863 2.86-6.863 6.357v57.213c0 3.497 3.088 6.357 6.863 6.357h34.31c3.774 0 6.862-2.86 6.862-6.357v-57.213c0-3.496-3.088-6.325-6.862-6.325zm0 57.18h-34.31V131h34.31v44.498z"/><g><path d="M114.188 136.78h35.557v32.94h-35.557z" fill="none"/><path d="M131.967 147.76c-3.274 0-5.926 2.455-5.926 5.49 0 3.032 2.653 5.49 5.927 5.49 3.274 0 5.926-2.458 5.926-5.49 0-3.035-2.652-5.49-5.926-5.49zm13.245 4.116c-.682-5.723-5.586-10.266-11.764-10.897v-2.83h-2.963v2.83c-6.178.63-11.082 5.173-11.763 10.896h-3.052v2.745h3.052c.68 5.724 5.585 10.267 11.763 10.9v2.826h2.963v-2.827c6.178-.633 11.082-5.176 11.764-10.9h3.052v-2.744h-3.052zm-13.245 10.98c-5.734 0-10.37-4.296-10.37-9.607 0-5.313 4.636-9.61 10.37-9.61 5.733 0 10.37 4.297 10.37 9.61 0 5.31-4.637 9.606-10.37 9.606z"/></g></g></svg>