<?xml version="1.0" encoding="UTF-8" standalone="no"?>
<!-- Created with Inkscape (http://www.inkscape.org/) -->

<svg
   xmlns:dc="http://purl.org/dc/elements/1.1/"
   xmlns:cc="http://creativecommons.org/ns#"
   xmlns:rdf="http://www.w3.org/1999/02/22-rdf-syntax-ns#"
   xmlns:svg="http://www.w3.org/2000/svg"
   xmlns="http://www.w3.org/2000/svg"
   xmlns:sodipodi="http://sodipodi.sourceforge.net/DTD/sodipodi-0.dtd"
   xmlns:inkscape="http://www.inkscape.org/namespaces/inkscape"
   width="400"
   height="300"
   viewBox="0 0 400.00001 299.99999"
   id="svg2"
   version="1.1"
   inkscape:version="0.91 r13725"
   inkscape:export-filename="/Users/rbeers/dev/blackhawk/product-starter-kit/app/images/template-1/graphic-1.png"
   inkscape:export-xdpi="90"
   inkscape:export-ydpi="90"
   sodipodi:docname="graphic-1.svg">
  <defs
     id="defs4" />
  <sodipodi:namedview
     id="base"
     pagecolor="#ffffff"
     bordercolor="#666666"
     borderopacity="1.0"
     inkscape:pageopacity="0.0"
     inkscape:pageshadow="2"
     inkscape:zoom="0.49497475"
     inkscape:cx="-170.4545"
     inkscape:cy="-28.527927"
     inkscape:document-units="px"
     inkscape:current-layer="layer1"
     showgrid="false"
     fit-margin-top="0"
     fit-margin-left="0"
     fit-margin-right="0"
     fit-margin-bottom="0"
     inkscape:window-width="1440"
     inkscape:window-height="787"
     inkscape:window-x="0"
     inkscape:window-y="0"
     inkscape:window-maximized="1"
     units="px" />
  <metadata
     id="metadata7">
    <rdf:RDF>
      <cc:Work
         rdf:about="">
        <dc:format>image/svg+xml</dc:format>
        <dc:type
           rdf:resource="http://purl.org/dc/dcmitype/StillImage" />
        <dc:title></dc:title>
      </cc:Work>
    </rdf:RDF>
  </metadata>
  <g
     inkscape:label="Layer 1"
     inkscape:groupmode="layer"
     id="layer1"
     transform="translate(-97.706733,-68.266575)">
    <g
       transform="matrix(0.28377336,0,0,0.28627846,305.19498,57.021856)"
       id="layer1-4"
       inkscape:label="Layer 1">
      <path
         sodipodi:nodetypes="cccssscssscsssssssccssssssssssssssscsssssssssssssssssssssssssscssssssssssssssssssssssssssssssscscsssssccccccssssssssssssssscscssssssssssssssscsssssssssssscscccscsssss"
         inkscape:connector-curvature="0"
         id="path4198"
         d="m 169.91644,1020.7325 c -2.49833,-0.9177 -5.80322,-4.3808 -7.42362,-7.7789 -1.6064,-3.3686 -4.07994,-6.5695 -5.49676,-7.1133 -4.16741,-1.5991 -5.02558,-11.89207 -2.05628,-24.66263 3.10801,-13.36727 6.37452,-42.88605 6.37452,-57.60562 0,-8.55953 1.42009,-12.69738 10.92093,-31.82053 l 10.92088,-21.98156 0.5643,-25.87447 c 0.51263,-23.50611 0.0609,-28.30432 -4.93439,-52.42038 -4.48457,-21.65011 -5.28168,-28.71494 -4.32192,-38.30674 l 1.17689,-11.76082 -18.08425,0.0584 c -19.58865,0.0631 -35.03222,-2.47099 -38.95299,-6.39179 -1.35895,-1.35896 -2.95368,-2.47081 -3.54387,-2.47081 -0.59028,0 -5.25599,-3.09002 -10.36825,-6.86674 -11.263867,-8.32106 -29.682878,-27.23107 -39.2651,-40.31161 -3.872022,-5.28572 -7.729941,-10.41694 -8.573043,-11.40272 -2.197152,-2.56893 -9.116686,-28.98049 -9.116686,-34.79804 0,-4.15759 0.397215,-4.57053 2.621027,-2.72492 1.441614,1.19639 2.622739,3.06186 2.624777,4.14547 0.0082,3.25565 10.559114,22.28263 18.052456,32.54879 14.235547,19.50327 38.734989,38.20975 59.686899,45.57376 14.18409,4.9853 34.345,4.59107 46.79528,-0.91506 5.30662,-2.34684 9.92574,-5.05219 10.26467,-6.01184 0.33894,-0.95968 10.05191,-11.72399 21.5844,-23.92072 18.654,-19.72841 35.11769,-40.7059 42.81697,-54.55597 1.44542,-2.60011 4.71857,-7.47956 7.27368,-10.84321 7.05039,-9.28141 16.62195,-34.2353 18.76642,-48.92567 2.01824,-13.82548 1.42562,-31.70444 -1.42603,-43.02332 -0.93891,-3.72683 -2.48385,-9.85142 -3.43318,-13.61016 -0.97687,-3.86774 -1.2839,-16.19244 -0.70735,-28.39438 0.93989,-19.89198 0.77795,-21.56025 -2.09291,-21.56025 -1.71139,0 -6.15785,2.75207 -9.88099,6.11571 -4.80729,4.34313 -8.4139,6.11598 -12.4432,6.11658 -3.12062,4.9e-4 -9.69294,1.5285 -14.60521,3.39555 l -8.93136,3.39466 -2.31362,-4.32303 c -2.02228,-3.77865 -1.81106,-5.47134 1.67734,-13.44276 2.19502,-5.01588 6.14263,-15.01706 8.77247,-22.22486 2.62987,-7.20781 5.99607,-15.46401 7.48044,-18.34713 1.48438,-2.88312 3.22367,-7.99411 3.86508,-11.35776 0.6414,-3.36364 2.81334,-11.46326 4.8265,-17.99917 2.80705,-9.11327 3.22882,-12.77924 1.80931,-15.72611 -4.23322,-8.78809 -5.63378,-16.55517 -5.63378,-31.24337 0,-15.39522 3.04726,-27.64068 6.87831,-27.64068 0.99801,0 3.86034,-3.24067 6.3607,-7.20151 3.53622,-5.60172 5.09527,-11.52124 7.01814,-26.64702 2.83501,-22.30114 4.53025,-27.30858 9.24514,-27.30858 6.21989,0 18.06281,7.79953 23.21876,15.29142 2.8117,4.0856 7.11868,9.58973 9.57105,12.23143 2.45236,2.64168 5.57934,6.9654 6.94884,9.60827 3.01939,5.82686 7.71511,6.17303 17.31883,1.27678 6.48906,-3.3083 7.05713,-3.34198 9.10619,-0.53971 3.12237,4.27009 2.70406,11.30518 -1.21603,20.45034 -4.8808,11.38648 -7.16027,31.97334 -6.22665,56.23568 0.87021,22.6141 2.4643,28.94253 11.49626,45.63906 4.05077,7.48827 7.54338,11.55443 11.57672,13.47781 3.17675,1.51487 5.7759,3.83168 5.7759,5.14846 0,1.31677 1.92823,4.47471 4.28494,7.01767 3.19114,3.4433 5.98683,4.62351 10.95214,4.62351 8.32893,0 17.90807,6.24293 23.37031,15.23092 5.59536,9.20709 24.0813,29.89608 27.75419,31.06183 1.67197,0.53065 4.32419,0.47202 5.89382,-0.13035 3.01513,-1.15703 17.28791,-21.59347 20.11825,-28.8063 0.91748,-2.33809 7.54464,-11.61044 14.72702,-20.60524 13.061,-16.35684 18.70823,-28.12163 18.70823,-38.97459 0,-2.8205 1.29028,-7.62329 2.86731,-10.6729 2.4555,-4.74843 2.67843,-8.93926 1.55233,-29.18126 -1.49702,-26.90934 -1.4141,-79.17704 0.17904,-112.85314 1.20606,-25.49342 0.37986,-28.64541 -10.12847,-38.64146 -11.75746,-11.18432 -24.42558,-17.93373 -50.00766,-26.6435 -33.79548,-11.50612 -56.34677,-17.96521 -59.07226,-16.91933 -6.54616,2.51199 -28.58235,-7.32057 -38.07934,-16.99102 -6.08754,-6.19871 -16.63137,-14.57302 -33.40327,-26.53012 -3.33743,-2.37934 -3.25879,-2.49048 1.74734,-2.46991 10.36273,0.0426 28.17624,6.81939 32.32591,12.29776 3.53111,4.66178 32.68668,18.3603 42.21845,19.83602 4.16949,0.64552 11.11927,2.26193 15.44395,3.59202 4.32468,1.33009 14.095,3.25301 21.71182,4.27317 7.61683,1.02016 16.18895,3.02226 19.04915,4.44912 2.86022,1.42686 14.32015,4.21 25.46651,6.18475 11.14638,1.97475 23.59889,4.34345 27.67227,5.26377 6.43786,1.45455 7.86961,1.20983 10.95133,-1.87191 3.79249,-3.79248 8.08011,-20.56548 10.46919,-40.95504 1.54785,-13.2101 4.96346,-17.90371 11.3623,-15.61373 1.92209,0.68786 10.74303,1.56519 19.60212,1.94962 15.42951,0.66955 16.29574,0.92279 20.58252,6.01734 4.35832,5.17956 4.73603,5.28125 14.47114,3.89617 5.4978,-0.78221 10.71473,-1.45966 11.59316,-1.50544 0.87845,-0.0458 3.05302,2.52275 4.83241,5.70786 2.88402,5.16242 3.12752,8.58732 2.24282,31.54778 -0.54583,14.16617 -0.18316,32.39726 0.80595,40.51356 0.9891,8.11629 2.25975,30.87616 2.82369,50.57747 0.56392,19.70134 1.81187,52.72617 2.77323,73.38854 2.63503,56.63508 2.62897,145.91749 -0.014,193.95539 -1.29502,23.54549 -2.6102,58.14295 -2.92257,76.88324 -0.78418,47.0456 -2.45262,85.82994 -3.78501,87.9858 -0.61365,0.99287 -1.72573,30.15664 -2.4713,64.80833 -0.74559,34.65169 -2.35097,70.86615 -3.56749,80.47654 -2.68316,21.19617 -2.69825,46.03702 -0.0477,78.63057 3.0487,37.49019 6.74293,55.6998 12.69378,62.56988 0.99184,1.14505 3.22404,4.834 4.96047,8.19764 1.73641,3.36363 6.22049,7.87195 9.96458,10.01855 28.66486,20.0477 -20.42404,15.4489 -18.63637,19.8385 -22.09911,-5.1013 -47.69955,-3.4662 -56.41266,-1.6476 -43.33099,1.8403 -79.82485,-6.9674 -120.83559,-5.8906 l -15.72612,0.8341 3.4947,-3.9265 c 1.92208,-2.1597 7.45444,-5.8088 12.29414,-8.1092 10.86026,-5.16226 36.73567,-30.9175 38.50103,-38.32219 0.67151,-2.81654 2.165,-6.30042 3.31891,-7.74199 3.08627,-3.85565 14.15114,-31.0847 16.3313,-40.18896 1.03562,-4.32467 2.36469,-20.44393 2.95347,-35.82058 1.49447,-39.02925 2.09771,-49.94133 5.50605,-99.59872 1.64908,-24.02601 3.18803,-52.33301 3.41986,-62.90446 0.23187,-10.57143 1.31946,-24.33178 2.41691,-30.57855 1.09746,-6.24676 2.28615,-18.82766 2.64154,-27.95755 2.78442,-71.53196 3.27967,-87.92693 3.37296,-111.66058 0.10066,-25.60605 -0.0641,-26.94129 -3.38888,-27.46943 -3.10756,-0.49365 -10.80208,1.22632 -18.34713,4.10114 -1.44156,0.54927 -7.23735,2.65189 -12.87951,4.67248 -9.74366,3.48944 -10.54675,4.23584 -16.00208,14.87207 -6.56597,12.80173 -9.54417,15.20484 -15.13513,12.21266 -3.40647,-1.82308 -19.7247,-6.73448 -22.56116,-6.79038 -0.57882,-0.0122 -2.07354,8.43205 -3.32158,18.76323 -1.37264,11.36269 -3.43172,20.50984 -5.2117,23.15232 -4.61797,6.85675 -10.50804,20.00924 -10.50804,23.46612 0,3.75094 -7.02665,16.72286 -9.05848,16.72286 -0.78406,0 -1.42559,0.82407 -1.42559,1.83127 0,1.00722 -2.75207,6.13345 -6.1157,11.39168 -3.36365,5.25821 -6.11572,10.69692 -6.11572,12.08599 0,1.3891 -1.48718,3.32154 -3.30484,4.29432 -1.81765,0.97279 -8.22095,7.48747 -14.22951,14.47709 -6.00858,6.98961 -16.94509,19.07377 -24.30338,26.85369 -19.51366,20.63183 -34.32863,43.55013 -39.99058,61.86425 -2.72096,8.80114 -10.78101,52.27905 -10.78101,58.15537 0,5.44687 -7.81163,22.85855 -12.66562,28.23089 -1.68328,1.86304 -3.0605,4.4004 -3.0605,5.6386 0,1.23818 -1.96576,3.53926 -4.36836,5.11352 -2.4026,1.57424 -4.36837,3.86715 -4.36837,5.09535 0,1.22823 -1.17945,2.68571 -2.62102,3.23891 -1.44155,0.55318 -2.69096,2.40649 -2.77645,4.11848 -0.0855,1.71198 -4.70338,7.04421 -10.26196,11.84941 -5.55859,4.8052 -11.04428,10.3539 -12.19045,12.33047 -1.14616,1.97654 -5.57081,5.49849 -9.83252,7.82656 -4.26172,2.32805 -7.74858,4.65101 -7.74858,5.16209 0,0.51109 -2.75424,4.0659 -6.12052,7.89956 -8.47559,9.65234 -15.33014,24.81444 -14.26711,31.55851 1.39687,8.86214 6.95429,18.37944 12.52456,21.44888 2.88314,1.58873 5.50415,3.47831 5.82449,4.19909 0.32035,0.72078 1.69639,1.31051 3.05786,1.31051 4.51067,0 2.56629,4.90085 -3.40971,8.59422 -3.23682,2.00047 -8.74097,3.63719 -12.23143,3.63719 -5.1814,0 -6.34629,0.64148 -6.34629,3.4947 0,1.92211 0.58972,3.49965 1.31051,3.50576 1.99173,0.0171 7.42621,10.31205 7.42621,14.06845 0,2.1615 -2.54259,4.5409 -7.31757,6.8478 -8.07781,3.9028 -9.01507,3.9997 -15.5325,1.6053 z m 321.32,-527.12584 6.44192,-3.02823 0.50486,-15.28055 c 0.46742,-14.14678 0.2526,-15.28055 -2.89514,-15.28055 -6.43156,0 -24.69358,25.9585 -24.69358,35.10063 0,3.45012 0.63268,3.68647 7.1,2.6523 3.90501,-0.62444 9.99888,-2.49805 13.54194,-4.1636 z"
         style="fill:#000000" />
      <path
         sodipodi:nodetypes="cccsscssssscsscsscscssssccscsscsccsccccsscscsssscsssccscsscscscscscccsscsscsssccscscsssssscsssscssscsssscsssssscscscsscsssssssccscssssssscsscssscssssssccsssscscsssscscscssssssssscssccsscscssscsscccssssssscssssscssssscssccscscsssssssccsssssscsscscsssccccccccccccsscscssssscsscscccscssscssssscssccssssssssssscccssscssscsscsssscsscsscscccsscsscccccccccccssscscscs"
         inkscape:connector-curvature="0"
         id="path4213"
         d="m -85.755583,1008.4518 38.215999,-0.3755 c 3.552627,-0.2253 5.914882,-0.9638 5.910516,-1.8475 -0.02508,-5.1101 -4.048624,-26.17283 -6.28033,-32.88061 -5.934582,-17.8372 -17.304403,-33.42341 -33.57974,-46.0325 l -4.360457,-3.37824 4.330538,0.71196 c 15.502723,2.54868 33.74532,20.92043 43.09501,43.39968 3.598251,8.65137 3.84467,7.43666 0.674957,-3.32678 -6.180536,-20.98684 -17.000933,-37.12047 -32.52735,-48.49977 -4.598886,-3.37054 -6.190757,-5.15118 -4.840565,-5.4149 3.35685,-0.65569 15.540913,5.36837 21.258716,10.51071 2.961297,2.66336 9.663197,6.8579 14.892995,9.3212 14.83808,6.98899 25.15291,19.34603 32.5320883,38.97301 l 3.4884216,9.27831 -0.7218802,-11.70122 c -1.1626834,-18.84761 -4.0188906,-36.01116 -10.1058577,-60.72848 -3.137005,-12.73878 -5.374008,-23.48742 -4.971022,-23.88589 2.31719,-2.29086 11.4863419,14.22927 18.25867106,32.89689 3.53293264,9.73861 3.73818894,10.03315 2.99298284,4.29676 -0.4398736,-3.38719 -3.26095706,-15.82051 -6.2688073,-27.6296 -3.0078495,-11.80906 -5.468783,-22.2016 -5.468783,-23.0945 0,-5.90604 8.0829384,6.68515 15.0860787,23.50021 11.3044957,27.14315 16.4304097,57.13847 15.8247707,92.6029 -0.378359,22.16126 0.446569,28.50386 2.201979,16.93036 1.292295,-8.5195 -0.288148,-45.9709 -2.542432,-60.24826 -1.079242,-6.83467 -4.157798,-20.95832 -6.841458,-31.38589 -2.683652,-10.42757 -4.6220211,-19.21354 -4.307581,-19.52438 1.145307,-1.13238 4.183537,3.19731 9.007841,12.83696 9.942975,19.86766 16.100751,45.06658 17.302663,70.8061 l 0.775666,16.61085 4.183389,-12.29989 c 4.871794,-14.3242 9.07254,-33.53114 9.197692,-42.05444 0.04847,-3.28079 0.505695,-7.01878 1.016682,-8.30666 0.824178,-2.07696 1.082552,-1.93776 2.286274,1.23171 0.746392,1.96532 1.903491,6.06751 2.571199,9.11599 1.194053,5.4509 1.216967,5.4713 1.382803,1.23171 0.157165,-4.0158 2.385539,-9.51239 2.746525,-6.7744 0.337252,2.55892 2.226992,-8.84722 2.295671,-13.85669 0.0977,-7.12041 2.061163,-6.59887 3.706179,0.9844 1.842016,8.49172 1.69381,17.39367 -0.533838,32.05637 -1.159198,7.63015 -1.454963,13.14932 -0.769586,14.3601 1.389382,2.45454 4.882049,-11.81427 6.340274,-25.90209 0.546622,-5.28099 1.278895,-9.88362 1.627222,-10.22807 0.348452,-0.34443 1.334876,2.26416 2.192075,5.79688 2.277393,9.38555 0.758239,24.8739 -4.358786,44.43994 -2.416772,9.24113 -4.394124,19.06666 -4.394124,21.83466 0,5.0177 0.01444,5.0327 4.796091,5.0327 l 4.796099,0 0.883539,-31.7164 c 0.853671,-30.64777 2.310499,-52.30478 3.953775,-58.77805 2.161848,-8.51577 4.612109,0.81603 6.776799,25.8093 0.761758,8.79537 1.62794,16.23179 1.924922,16.5254 0.296997,0.2936 0.554449,-5.79407 0.572165,-13.52816 0.0174,-7.7341 0.57098,-19.60467 1.229525,-26.37906 2.129694,-21.90711 3.809557,-24.64113 6.24353,-10.16158 0.825692,4.91143 1.990604,9.53254 2.588707,10.26914 1.83745,2.26289 3.7718,19.58832 5.28235,47.31316 l 1.44273,26.48169 2.81947,-11.21051 c 1.55074,-6.16575 3.45912,-17.42199 4.24094,-25.01393 1.21819,-11.82833 1.11617,-15.65655 -0.71263,-26.75319 -1.17386,-7.12231 -2.44149,-13.74116 -2.817,-14.70856 -0.3755,-0.9674 -0.12377,-1.7589 0.55921,-1.7589 1.59224,0 6.34763,9.90533 8.5742,17.85975 0.94808,3.38719 2.07691,11.87326 2.50845,18.85793 l 0.78455,12.69939 2.70379,-8.38841 c 3.15977,-9.80271 6.23341,-15.97355 7.18004,-14.41488 0.36736,0.60479 -0.091,6.36518 -1.01856,12.80084 -2.35583,16.34617 -2.22019,19.28134 0.56563,12.24315 1.22275,-3.08913 3.11849,-7.24615 4.21268,-9.2378 1.09427,-1.99167 3.21891,-9.16388 4.72155,-15.93827 3.22195,-14.52565 7.30977,-26.30392 13.25205,-38.18291 4.28713,-8.57047 7.2741,-12.69721 8.39108,-11.59297 0.32121,0.3176 -1.33451,8.04436 -3.67943,17.17057 -7.54942,29.38146 -7.51044,28.7508 -2.55217,41.3613 4.67543,11.8912 5.36051,11.69301 2.59215,-0.74989 -0.97967,-4.40335 -1.7831,-9.39176 -1.7854,-11.08537 0,-3.00234 0.0427,-3.0182 1.86471,-0.63471 1.0279,1.3445 3.05226,5.65337 4.49867,9.57523 1.44643,3.92186 2.87412,6.88918 3.17263,6.59403 0.29852,-0.29515 -0.9415,-7.81459 -2.75569,-16.70986 -1.81419,-8.89528 -3.0417,-16.84252 -2.72779,-17.66054 0.87318,-2.27587 8.86143,15.49413 13.17364,29.30536 4.50476,14.42768 8.40282,32.43552 9.46497,43.7256 1.54026,16.37091 1.38518,16.01211 6.92001,16.01211 5.6802,0 5.59244,0.3611 3.07423,-12.64956 -3.08347,-15.93096 -6.80765,-29.92874 -14.49414,-54.47839 -7.97632,-25.47532 -9.43691,-31.40853 -7.73159,-31.40853 0.61371,0 2.14624,1.72446 3.40555,3.83213 1.58118,2.64629 2.58393,3.36147 3.24052,2.31116 0.63107,-1.00952 2.11249,0.49756 4.40555,4.4819 1.90014,3.30157 4.42964,7.66566 5.62115,9.69797 4.09281,6.98083 12.24155,27.24952 16.6163,41.33008 2.40882,7.75322 4.40541,13.23623 4.43679,12.18449 0.11585,-3.8857 -8.73065,-36.9834 -16.05934,-60.08311 -7.52606,-23.72154 -8.39512,-27.30537 -6.62047,-27.30119 2.54718,0.006 15.84541,25.45161 22.81094,43.64803 l 4.68612,12.24171 0.81397,-6.08318 c 2.25402,-16.84536 8.46971,-34.60136 12.56464,-35.89257 1.6628,-0.52429 1.35249,6.5197 -0.71836,16.30737 -2.039,9.63703 -2.02989,30.84712 0.0182,42.44715 l 1.63101,9.23782 1.90013,-4.31099 c 1.32695,-3.01059 1.73914,-6.91174 1.36641,-12.93293 -1.03413,-16.70572 -0.36911,-32.12238 1.79094,-41.51855 2.24913,-9.78362 9.56122,-26.07632 10.47998,-23.35134 0.28462,0.84419 -0.35653,6.36272 -1.42479,12.26338 -1.81941,10.04961 -2.4116,19.14767 -2.10132,32.28335 l 0.13093,5.54268 5.0099,-9.2378 c 2.75544,-5.08079 5.1234,-9.74589 5.2621,-10.36687 0.31426,-1.40681 4.34525,-5.64532 5.36893,-5.64532 0.41591,0 0.42063,0.86462 0.0101,1.92137 -0.54073,1.39313 0.73379,2.56845 4.63557,4.27479 2.95976,1.29437 6.82142,3.47329 8.58151,4.84206 2.7986,2.17638 3.29451,2.24555 3.95211,0.55129 2.2824,-5.88022 0.85952,-8.90032 -7.01582,-14.89144 -5.09956,-3.87944 -7.08328,-6.03963 -5.775,-6.28872 3.51418,-0.66908 15.77233,5.55758 21.91454,11.13172 3.27558,2.97265 8.57609,6.36599 11.77891,7.54074 15.27936,5.60431 27.89738,20.76426 35.99818,43.2501 2.64787,7.34983 2.81043,5.59281 1.13806,-12.30144 -1.8139,-19.40852 -4.25724,-32.88992 -10.20479,-56.30583 -2.87588,-11.32249 -4.79637,-21.0139 -4.26778,-21.53646 0.52858,-0.52259 2.029,0.42723 3.33425,2.11072 2.98242,3.84653 12.00272,21.97996 13.11687,26.36864 0.45918,1.80876 1.0626,3.0635 1.34092,2.78834 0.82625,-0.81641 -5.42646,-28.64345 -10.01479,-44.57173 -5.43396,-18.86385 -6.24558,-22.78658 -4.71457,-22.78658 2.99572,0 15.77394,22.78757 21.75655,38.79878 11.76197,31.47844 16.54737,62.10791 15.59212,99.79863 -0.44609,17.60093 -0.22652,22.75613 0.96919,22.75613 2.29463,0 3.50527,-18.4214 2.45997,-37.43188 -1.10304,-20.06092 -4.30813,-39.73805 -10.04773,-61.68644 -2.44224,-9.33914 -4.09324,-17.32351 -3.66891,-17.74301 1.73938,-1.71963 9.96927,13.10116 14.8261,26.69961 6.77465,18.96803 10.21011,35.71493 11.49041,56.01255 l 0.87212,13.82612 3.46243,-10.66789 c 4.38371,-13.50626 8.53253,-33.50893 8.55731,-41.25732 0.0449,-14.05366 4.29291,-8.51514 6.07332,7.91848 l 0.89785,8.2872 1.67051,-7.39025 c 0.91877,-4.06463 2.31482,-12.65579 3.1023,-19.09146 1.28385,-10.49234 1.59485,-11.40841 3.01023,-8.86711 5.79074,10.39727 1.69358,40.58554 -10.85743,79.99815 -4.04032,12.68745 -3.18104,15.78745 1.02424,3.69515 11.7157,-33.68877 16.23944,-51.13179 16.23944,-62.61746 0,-6.52954 1.97345,-8.17439 3.19495,-2.663 0.41291,1.86296 0.99369,4.14976 1.29065,5.08177 0.29694,0.93202 3.64752,-4.33557 7.44571,-11.70576 7.62122,-14.78857 11.10085,-19.97632 12.48267,-18.6102 0.99864,0.98728 0.0892,4.3436 -10.09226,37.24334 -6.71892,21.71121 -12.30297,43.96546 -13.87251,55.28651 l -0.78789,5.6829 5.15276,0 c 2.83402,0 5.15736,-0.4157 5.16298,-0.9237 0.0447,-4.0397 2.88716,-24.9765 4.47318,-32.94816 4.02309,-20.22126 14.29048,-50.38359 18.64289,-54.76697 2.54686,-2.56498 2.41847,-1.28214 -1.95752,19.56002 -3.7394,17.81019 -4.2566,23.14543 -1.29437,13.35209 2.17457,-7.18928 7.80582,-17.89734 8.44338,-16.05548 0.28639,0.82737 -0.64191,7.14006 -2.06289,14.02822 -1.421,6.88814 -2.55562,12.86244 -2.52143,13.27619 0.0343,0.41375 2.08494,-4.51328 4.5572,-10.94895 2.80456,-7.30081 4.42422,-13.56607 4.30685,-16.6601 -0.10341,-2.72738 -2.44509,-13.75608 -5.20365,-24.50823 -2.75854,-10.75213 -4.67878,-19.88225 -4.2672,-20.28916 1.02087,-1.00928 3.77392,2.80757 8.16945,11.32615 5.92359,11.48003 11.61063,28.57869 14.83027,44.58867 0.81741,4.06463 1.99606,8.0132 2.61924,8.77461 0.62317,0.7614 2.50092,4.64128 4.1728,8.62195 3.56691,8.49269 3.69478,7.62395 1.2916,-8.77462 -2.15967,-14.73681 -2.1932,-15.39633 -0.78292,-15.39633 1.24588,0 5.39731,9.89325 7.98739,19.03475 l 1.72884,6.10183 0.70287,-14.10922 c 0.73495,-14.75343 3.73209,-26.54949 8.59145,-33.81394 l 2.47174,-3.69512 -0.54038,4.31098 c -0.29724,2.37101 -1.27616,9.62882 -2.17541,16.12841 -1.93365,13.97613 -0.48689,31.25865 4.08146,48.75616 l 2.83677,10.86539 0.29655,-6.77443 c 1.76542,-40.33037 4.22194,-66.24669 6.41848,-67.71561 0.52974,-0.35425 1.58928,-4.44912 2.35455,-9.09971 2.12246,-12.89828 3.30473,-12.9189 5.25428,-0.0918 0.7145,4.70105 1.67932,18.80131 2.14409,31.33393 l 0.845,22.78658 1.59482,-18.47406 c 1.07798,-12.4869 1.20208,-19.87169 0.38295,-22.78658 -0.66656,-2.37189 -1.21504,-5.38842 -1.21885,-6.70343 -0.005,-2.31561 0.0463,-2.31888 1.68449,-0.104 1.64403,2.22283 1.72886,2.2208 3.02703,-0.0726 1.24637,-2.20181 1.42467,-2.1278 2.66906,1.10797 0.7334,1.90705 1.33345,4.86588 1.33345,6.57517 0,1.70927 1.5908,6.52304 3.53514,10.69725 1.94431,4.1742 5.44828,12.25649 7.7866,17.96063 7.65879,18.68314 5.64467,5.45982 -3.81529,-25.04848 -8.87188,-28.61177 -9.58073,-31.51171 -7.70243,-31.51171 2.42484,0 19.45742,33.23174 24.30502,47.42073 l 2.94564,8.62194 0.85704,-6.77439 c 0.47139,-3.72591 1.44946,-9.54573 2.17347,-12.93292 1.44119,-6.74214 8.3566,-22.78658 9.82139,-22.78658 1.95518,0 2.07682,6.78938 0.25083,14.00175 -2.42784,9.58968 -2.59335,33.96826 -0.31467,46.3519 l 1.69983,9.23775 2.04396,-6.53178 c 1.63896,-5.23763 1.8207,-8.2882 0.91722,-15.39634 -2.40009,-18.88275 0.9064,-41.38038 8.18175,-55.66938 4.22656,-8.30109 5.52068,-7.48706 3.42506,2.15444 -2.19186,10.08441 -3.81173,29.94642 -2.9495,36.16554 l 0.78087,5.63242 5.10981,-9.65912 c 2.81041,-5.31253 6.09094,-11.02957 7.29007,-12.70453 l 2.18027,-3.04541 -0.014,3.04541 c -0.007,1.67496 -2.77834,11.79675 -6.157,22.49285 l -6.14304,19.44744 2.56225,10.11356 c 1.40922,5.56242 2.97288,10.86308 3.4748,11.77932 0.50193,0.91633 1.29362,-4.90356 1.75938,-12.93287 1.26671,-21.83823 3.28385,-34.55889 5.96465,-37.61476 1.26846,-1.44596 2.59999,-2.33863 2.95897,-1.98373 1.7155,1.69602 3.11919,17.76749 3.87781,44.39905 0.77741,27.29155 0.98708,29.25295 3.12692,29.25295 2.11255,0 2.29363,-1.2923 2.29363,-16.37115 0,-9.00424 -0.86937,-22.92521 -1.93196,-30.93553 -1.06258,-8.01032 -1.54646,-14.91566 -1.07529,-15.34518 0.47116,-0.42953 1.11614,-0.0609 1.43326,0.81922 1.11416,3.09202 4.96796,-6.53718 5.83222,-14.5725 2.03778,-18.94608 5.38389,-12.26732 6.36436,12.70308 0.68429,17.42781 5.33374,50.15339 7.12546,50.15339 0.51687,0 0.93978,-1.31777 0.93978,-2.92813 0,-1.61053 0.91063,-6.91488 2.02362,-11.78741 1.87303,-8.19984 1.86923,-10.15901 -0.0511,-26.32485 -1.1411,-9.60614 -2.27943,-18.43511 -2.52959,-19.61996 -0.70464,-3.33736 1.49926,-3.78489 3.20875,-0.65158 0.84195,1.54322 2.7423,6.34848 4.22304,10.67837 l 2.69221,7.87254 3.95914,-8.36439 c 2.17752,-4.60042 4.30598,-8.02147 4.72993,-7.60236 0.42392,0.41912 -0.50791,7.19478 -2.07078,15.05702 -2.80907,14.13169 -2.8181,14.48081 -0.79236,30.56168 1.12701,8.94677 2.04913,18.60467 2.04913,21.46234 l 0,5.1954 9.96685,0 9.96684,0 0,7.3904 0,7.3902 -358.24566,0 -389.369379,1.5048 z m 76.5166249,-1.5396 c -0.048317,-4.7078 -2.8020359,-22.98475 -4.4578359,-29.58692 -3.991757,-15.91545 -16.25796,-36.21162 -25.407505,-42.03994 l -3.088782,-1.96764 2.791908,3.90539 c 9.233265,12.91607 15.785845,33.34071 18.010395,56.14032 l 1.412075,14.47249 5.374658,0 c 2.955908,0 5.3702901,-0.4157 5.3650869,-0.9237 z m 63.6386521,-2.3911 c 0.701126,-1.8231 1.107705,-4.72674 0.903549,-6.45238 -0.296115,-2.50308 -0.789027,-1.83267 -2.436939,3.31478 -2.098172,6.5539 -0.801108,9.208 1.53339,3.1376 z m 82.135846,-6.74414 c 0,-5.53235 -0.20474,-9.82785 -0.4551,-9.54565 -1.24718,1.40642 -2.02942,19.60459 -0.84268,19.60459 0.79389,0 1.29778,-3.9056 1.29778,-10.05894 z m 22.41812,6.05594 c -0.008,-4.79274 -2.89487,-24.13654 -5.91119,-39.6201 l -2.17951,-11.18779 -0.81122,6.7744 c -1.06825,8.92162 -1.23835,37.55333 -0.25795,43.41769 0.71428,4.2722 1.08717,4.6188 4.96976,4.6188 3.90649,0 4.1969,-0.2774 4.19011,-4.003 z m 84.25707,1.8476 c -0.34998,-1.1855 -1.60697,-5.4811 -2.7933,-9.54577 -1.88929,-6.47321 -2.26912,-7.00812 -3.06098,-4.31094 -1.15812,3.94468 -1.37234,11.54891 -0.39618,14.06391 0.41592,1.0715 2.13561,1.9482 3.82153,1.9482 2.33116,0 2.91289,-0.5161 2.42893,-2.1554 z m 26.63142,-15.04606 c 0,-9.46086 -0.87159,-23.37964 -1.93688,-30.93065 -1.96905,-13.95717 -1.75038,-16.76566 1.01535,-13.0409 1.35587,1.82599 1.56088,1.62257 1.67896,-1.66584 0.10926,-3.04326 -1.1363,-4.89411 -6.64115,-9.86808 -3.72658,-3.36723 -7.19713,-6.12224 -7.71233,-6.12224 -1.35588,0 -11.32503,32.12658 -11.29972,36.41446 0.0209,3.52442 4.23556,21.16807 5.31053,22.23084 0.29654,0.29313 0.9221,-5.71518 1.39015,-13.35187 1.4034,-22.8974 3.29929,-35.12493 5.90701,-38.09752 1.28538,-1.46521 2.70186,-2.30333 3.14775,-1.8625 1.85186,1.83083 2.91955,14.21985 3.70672,43.01104 0.77972,28.51942 0.98173,30.48472 3.13353,30.48472 2.1264,0 2.30008,-1.2988 2.30008,-17.20146 z m 56.55157,10.73506 c -2.17831,-21.9962 -6.68725,-37.09721 -14.83788,-49.69401 -4.41724,-6.82683 -4.74864,-7.07699 -5.76767,-4.35359 -0.7778,2.07873 -0.22466,5.23674 1.97149,11.25592 3.6702,10.05907 6.39646,23.87783 7.59171,38.48068 l 0.88214,10.7774 5.4003,0 5.4003,0 z m 128.28051,-1.1044 c 0.94739,-8.96144 0.8083,-26.55903 -0.30527,-38.61813 l -0.79618,-8.62196 -2.76822,14.16464 c -2.42044,12.38504 -3.76523,20.79804 -5.85743,36.64325 -0.51558,3.9047 -0.41248,4.003 4.19906,4.003 l 4.72763,0 z m 14.88167,-0.74321 c -0.82853,-11.83376 -1.41026,-12.30382 -1.52435,-1.23169 -0.0542,5.2501 0.39771,9.5457 1.00404,9.5457 0.60631,0 0.84045,-3.7413 0.52031,-8.31401 z m 68.14521,5.36791 c 0,-4.1696 -4.45303,-25.21177 -8.10858,-38.31601 l -3.09235,-11.08536 0.61704,15.28179 c 0.33938,8.40494 0.61704,20.18317 0.61704,26.17373 l 0,10.89195 4.98341,0 c 4.42505,0 4.98344,-0.33 4.98344,-2.9461 z m 42.00288,1.3417 c -0.34252,-0.8826 -1.63783,-5.1781 -2.87845,-9.54569 -1.93137,-6.79959 -2.38049,-7.49857 -3.12387,-4.86202 -1.14752,4.0698 -1.33734,14.15151 -0.28604,15.19101 1.58436,1.5663 6.94138,0.899 6.28836,-0.7833 z M 286.70392,969.04329 c -3.46831,-9.40152 -5.64908,-12.57205 -5.64908,-8.213 0,2.45845 4.42207,26.65161 5.89016,32.2252 0.59756,2.26855 1.12208,0.73141 1.99225,-5.83871 1.09169,-8.24253 0.92253,-9.61891 -2.23333,-18.17349 z m -75.81178,18.85447 c -0.39771,-0.98266 -0.69292,-0.69072 -0.75269,0.74409 -0.0542,1.29848 0.24034,2.02594 0.65433,1.61669 0.41401,-0.40943 0.45824,-1.47173 0.0983,-2.36078 z m -48.58838,-25.86588 c -0.39768,-0.98258 -0.69294,-0.69072 -0.75265,0.74416 -0.0543,1.29841 0.2403,2.02589 0.65434,1.61661 0.41397,-0.40929 0.45822,-1.47163 0.0982,-2.36077 z m 127.4728,-15.16069 c -0.93978,-6.12213 -9.0398,-19.30848 -9.77142,-15.90731 -0.89535,4.16231 1.26418,10.22782 5.60071,15.73072 2.47682,3.143 4.61975,5.71456 4.76206,5.71456 0.14233,0 -0.12384,-2.49209 -0.59135,-5.53797 z m 11.10585,-8.75307 c -0.85674,-1.0206 -2.61747,-2.41637 -3.91273,-3.10168 -1.88243,-0.99601 -1.653,-0.19725 1.1434,3.98059 2.5548,3.81689 3.61013,4.65348 3.91274,3.10168 0.22786,-1.16873 -0.28665,-2.95999 -1.14341,-3.98059 z"
         style="fill:#004600;fill-opacity:1" />
    </g>
    <g
       style="fill:#000000"
       id="g4722"
       transform="matrix(5.3671752,0,0,6.3773277,89.544293,128.37817)">
      <path
         id="path4712"
         d="m 12,12 c 2.21,0 4,-1.79 4,-4 C 16,5.79 14.21,4 12,4 9.79,4 8,5.79 8,8 c 0,2.21 1.79,4 4,4 z m 0,2 c -2.67,0 -8,1.34 -8,4 l 0,2 16,0 0,-2 c 0,-2.66 -5.33,-4 -8,-4 z"
         inkscape:connector-curvature="0" />
      <path
         id="path4714"
         d="M 0,0 24,0 24,24 0,24 Z"
         inkscape:connector-curvature="0"
         style="fill:none" />
    </g>
    <g
       style="fill:#000000"
       id="g4840"
       transform="matrix(2.9259732,0,0,3.2626907,267.12808,176.86551)">
      <path
         id="path4830"
         d="M 6.99,11 3,15 l 3.99,4 0,-3 7.01,0 0,-2 -7.01,0 0,-3 z M 21,9 17.01,5 l 0,3 -7.01,0 0,2 7.01,0 0,3 L 21,9 Z"
         inkscape:connector-curvature="0" />
      <path
         id="path4832"
         d="M 0,0 24,0 24,24 0,24 Z"
         inkscape:connector-curvature="0"
         style="fill:none" />
    </g>
    <g
       id="g4910"
       transform="matrix(0.89073137,0,0,0.8251702,-42.475445,-44.225183)">
      <g
         transform="matrix(3.8519464,0,0,3.8519464,259.33114,275.81984)"
         id="g4781"
         style="fill:#000000">
        <path
           style="fill:none"
           inkscape:connector-curvature="0"
           d="M 0,0 24,0 24,24 0,24 Z"
           id="path4771" />
        <path
           inkscape:connector-curvature="0"
           d="M 17,1.01 7,1 C 5.9,1 5,1.9 5,3 l 0,18 c 0,1.1 0.9,2 2,2 l 10,0 c 1.1,0 2,-0.9 2,-2 L 19,3 C 19,1.9 18.1,1.01 17,1.01 Z M 17,19 7,19 7,5 17,5 17,19 Z"
           id="path4773" />
      </g>
      <g
         transform="matrix(1.6632825,0,0,1.6632825,285.5748,302.08381)"
         id="g4887"
         style="fill:#000000">
        <path
           style="fill:none"
           inkscape:connector-curvature="0"
           d="M 0,0 24,0 24,24 0,24 Z"
           id="path4877" />
        <path
           inkscape:connector-curvature="0"
           d="m 12,8 c -2.21,0 -4,1.79 -4,4 0,2.21 1.79,4 4,4 2.21,0 4,-1.79 4,-4 0,-2.21 -1.79,-4 -4,-4 z m 8.94,3 C 20.48,6.83 17.17,3.52 13,3.06 L 13,1 11,1 11,3.06 C 6.83,3.52 3.52,6.83 3.06,11 L 1,11 l 0,2 2.06,0 c 0.46,4.17 3.77,7.48 7.94,7.94 l 0,2.06 2,0 0,-2.06 c 4.17,-0.46 7.48,-3.77 7.94,-7.94 l 2.06,0 0,-2 -2.06,0 z M 12,19 C 8.13,19 5,15.87 5,12 5,8.13 8.13,5 12,5 c 3.87,0 7,3.13 7,7 0,3.87 -3.13,7 -7,7 z"
           id="path4879" />
      </g>
    </g>
  </g>
</svg>
