<?xml version="1.0" encoding="UTF-8" standalone="no"?>
<!-- Created with Inkscape (http://www.inkscape.org/) -->

<svg
   xmlns:dc="http://purl.org/dc/elements/1.1/"
   xmlns:cc="http://creativecommons.org/ns#"
   xmlns:rdf="http://www.w3.org/1999/02/22-rdf-syntax-ns#"
   xmlns:svg="http://www.w3.org/2000/svg"
   xmlns="http://www.w3.org/2000/svg"
   xmlns:sodipodi="http://sodipodi.sourceforge.net/DTD/sodipodi-0.dtd"
   xmlns:inkscape="http://www.inkscape.org/namespaces/inkscape"
   width="168"
   height="40"
   viewBox="0 0 168 39.999998"
   id="svg2"
   version="1.1"
   inkscape:version="0.91 r13725"
   sodipodi:docname="logo.svg"
   inkscape:dataloss="true">
  <defs
     id="defs4">
    <clipPath
       id="clipPath4171"
       clipPathUnits="userSpaceOnUse">
      <path
         inkscape:connector-curvature="0"
         id="path4173"
         d="M 0,415 550,415 550,0 0,0 0,415 Z" />
    </clipPath>
  </defs>
  <sodipodi:namedview
     id="base"
     pagecolor="#ffffff"
     bordercolor="#666666"
     borderopacity="1.0"
     inkscape:pageopacity="0.22352941"
     inkscape:pageshadow="2"
     inkscape:zoom="1.979899"
     inkscape:cx="204.73515"
     inkscape:cy="-46.521156"
     inkscape:document-units="px"
     inkscape:current-layer="layer1"
     showgrid="false"
     inkscape:window-width="1440"
     inkscape:window-height="787"
     inkscape:window-x="0"
     inkscape:window-y="0"
     inkscape:window-maximized="1"
     fit-margin-top="0"
     fit-margin-left="0"
     fit-margin-right="0"
     fit-margin-bottom="0"
     units="px" />
  <metadata
     id="metadata7">
    <rdf:RDF>
      <cc:Work
         rdf:about="">
        <dc:format>image/svg+xml</dc:format>
        <dc:type
           rdf:resource="http://purl.org/dc/dcmitype/StillImage" />
        <dc:title></dc:title>
      </cc:Work>
    </rdf:RDF>
  </metadata>
  <g
     inkscape:label="Layer 1"
     inkscape:groupmode="layer"
     id="layer1"
     transform="translate(-40.950484,-47.40597)">
    <g
       transform="matrix(0.12959131,0,0,-0.12757906,-12.451655,96.25833)"
       id="g4167">
      <g
         clip-path="url(#clipPath4171)"
         id="g4169"
         transform="translate(294.15642,-23.435539)">
        <g
           transform="translate(167.3438,57.043)"
           id="g4175" />
        <g
           transform="translate(187.9072,88.7051)"
           id="g4179" />
        <g
           transform="translate(232.832,86.0957)"
           id="g4183" />
        <g
           transform="translate(267.8076,86.0957)"
           id="g4187" />
        <g
           transform="translate(303.3896,86.0957)"
           id="g4191" />
        <g
           transform="translate(342.8662,57.459)"
           id="g4195" />
        <g
           transform="translate(378.0693,86.8516)"
           id="g4199" />
        <g
           transform="translate(401,124.4512)"
           id="g4203">
          <path
             inkscape:connector-curvature="0"
             id="path4205"
             style="fill:#534741;fill-opacity:1;fill-rule:nonzero;stroke:none"
             d="m 0,0 c 0,-3.011 -2.441,-5.451 -5.452,-5.451 l -240.096,0 c -3.011,0 -5.452,2.44 -5.452,5.451 l 0,240.098 c 0,3.01 2.441,5.451 5.452,5.451 l 240.096,0 c 3.011,0 5.452,-2.441 5.452,-5.451 L 0,0 Z" />
        </g>
        <g
           transform="translate(293.1152,180.6084)"
           id="g4207" />
        <g
           transform="translate(261.3701,265.1021)"
           id="g4211" />
      </g>
    </g>
    <g
       id="g4310"
       transform="matrix(0.10576794,0,0,0.09314922,99.695502,49.989983)">
      <g
         transform="matrix(1.184551,0,0,1.184551,65.662103,-38.696535)"
         id="g4366">
        <path
           transform="matrix(1.25,0,0,-1.25,-340.67427,276.88533)"
           inkscape:connector-curvature="0"
           id="path4209"
           style="fill:#c7b299;fill-opacity:1;fill-rule:nonzero;stroke:none"
           d="M 0,0 C 2.12,-1.649 4.713,-8.25 4.713,-8.25 0.941,-5.187 0,0 0,0 m 48.085,13.907 c -1.413,1.414 -5.657,3.301 -8.014,2.594 -2.359,-0.707 -5.186,-1.18 -10.136,-0.707 -4.951,0.47 -12.257,8.014 -16.029,12.963 0.237,7.072 -11.786,29.701 -14.614,36.537 -2.828,6.835 -2.828,23.336 -2.828,23.336 0.555,5.136 -2.216,8.139 -1.651,10.372 0.394,1.558 2.591,-0.472 3.299,2.121 0,1.414 0,7.779 -0.942,9.664 -0.943,1.885 -2.995,1.224 -3.064,4.007 -0.066,2.566 -2.115,6.059 -1.885,6.835 1.179,4.008 0.708,13.436 0.708,13.436 0,0 1.177,5.186 -1.179,5.186 -2.358,0 -3.771,3.065 -3.771,3.065 l -1.179,8.014 c 0,0 0.582,4.479 -4.133,4.479 -4.713,0 -5.782,-5.893 -5.782,-5.893 l 0,-3.445 -1.054,-1.505 c 0,0 -1.587,1.178 -3.708,3.535 -2.123,2.358 -3.507,1.886 -5.156,0 -1.65,-1.886 0.016,-5.657 0.016,-5.657 0.708,-2.12 1.658,-8.723 2.13,-11.079 0.472,-2.357 -1.411,-10.372 -0.467,-12.493 0.941,-2.122 0.471,-5.657 0.471,-9.9 0,-4.243 -6.596,-10.607 -6.596,-10.607 l -4.01,-4.479 c 0,0 -7.541,2.593 -7.541,2.122 -7.544,9.664 -11.315,12.493 -14.144,15.085 -2.828,2.593 -4.949,7.544 -5.891,9.429 -0.945,1.886 -4.716,3.536 -4.716,3.536 0,0 0.472,-1.415 0.238,-2.357 -4.009,3.065 -5.659,0.707 -5.659,0.707 0,0 0.64,-1.476 1.711,-2.433 -0.846,0.575 -3.831,0.707 -3.831,-0.161 0,-0.942 2.828,-3.535 4.477,-4.478 -3.771,0 -3.536,-1.178 -3.536,-1.178 0,0 2.358,-2.593 4.48,-2.593 2.12,0 6.363,-3.064 6.363,-3.064 l 2.123,-3.066 3.3,-2.356 c 0,0 11.312,-16.736 13.199,-20.035 1.886,-3.3 4.951,-4.244 4.951,-4.244 0,0 3.771,-0.236 6.835,-0.943 -4.95,-9.193 23.808,-36.771 23.808,-36.771 4.478,-6.837 1.415,-22.866 1.415,-22.866 0,0 -4.009,-10.842 -2.358,-15.321 1.651,-4.479 3.771,-5.892 11.314,-12.73 7.542,-6.836 5.658,-11.784 5.658,-11.784 0,0 -3.065,-9.193 -4.48,-11.551 -2.593,1.179 -5.657,0.238 -5.185,-1.414 0.472,-1.65 5.422,-1.649 6.364,-0.707 1.179,-0.943 3.535,0 3.535,0 0,0 4.009,8.487 6.13,12.73 3.536,0 7.542,9.664 7.542,9.664 C 7.071,0.707 8.015,8.25 8.721,9.9 9.428,11.549 11.55,15.557 12.491,20.036 25.929,9.429 36.3,9.9 39.835,12.259 c 3.535,2.357 5.894,-0.473 6.364,-0.707 0.473,-0.239 3.301,0.94 1.886,2.355" />
        <path
           transform="matrix(1.25,0,0,-1.25,-380.35565,171.26821)"
           inkscape:connector-curvature="0"
           id="path4213"
           style="fill:#c7b299;fill-opacity:1;fill-rule:nonzero;stroke:none"
           d="m 0,0 c 0.65,-3.618 3.137,-5.471 3.137,-5.471 0,0 3.362,-1.435 5.925,-3.071 -1.238,-1.12 -1.789,-3.006 -1.863,-5.358 l 8.178,-2.904 -3.276,23.633 c 0,0 -6.031,4.804 -6.185,4.375 -3.745,11.249 -6.264,15.048 -8.004,18.326 -1.737,3.279 -2.068,8.477 -2.315,10.5 -0.251,2.024 -3.154,4.749 -3.154,4.749 0,0 -0.026,-1.443 -0.545,-2.226 -2.661,4.092 -4.929,2.477 -4.929,2.477 0,0 0.106,-1.551 0.772,-2.77 -0.584,0.798 -3.262,1.885 -3.543,1.094 -0.304,-0.858 1.433,-4.137 2.63,-5.531 -3.436,1.221 -3.604,0.071 -3.604,0.071 0,0 1.309,-3.124 3.243,-3.812 1.932,-0.687 4.807,-4.853 4.807,-4.853 l 0.941,-3.482 2.244,-3.215 C -5.541,22.532 -0.65,3.618 0,0" />
      </g>
    </g>
    <g
       id="g4299"
       transform="matrix(0.36568527,0,0,0.36568527,32.808143,-107.17886)">
      <path
         d="m 174.87311,501.0426 c 0.25125,-4.38125 0.37875,-15.62 0.37875,-33.715 0,-9.67625 -0.1275,-16.2975 -0.37875,-19.85875 -11.19125,0.47375 -17.5125,0.70875 -18.9625,0.70875 -1.38625,0 -2.34875,-0.22125 -2.88375,-0.66125 -0.535,-0.4425 -0.80375,-1.2775 -0.80375,-2.50625 0,-1.765 0.44125,-3.68875 1.32375,-5.76875 5.36,1.4175 13.12875,2.1275 23.31125,2.1275 l 29.55374,0 c 1.3875,0 2.35625,0.22875 2.90875,0.68625 0.55,0.45625 0.8275,1.28375 0.8275,2.4825 0,2.20625 -0.6475,4.30125 -1.94,6.28875 -5.26375,-2.24 -12.10499,-3.3575 -20.52124,-3.3575 l -1.6075,0 c -0.2525,3.56125 -0.37875,10.37 -0.37875,20.42625 0,17.7175 0.12625,28.76625 0.37875,33.1475 l 6.76125,0 c 0.37875,0.94625 0.5675,1.86 0.5675,2.7425 0,0.7875 -0.1575,1.34 -0.4725,1.65625 -0.31625,0.315 -0.8675,0.47125 -1.655,0.47125 l -23.16875,0 c -0.41125,-1.07 -0.615,-2.065 -0.615,-2.9775 0,-0.66375 0.16375,-1.1425 0.49625,-1.44375 0.33125,-0.3 0.87375,-0.44875 1.63125,-0.44875 l 5.24875,0 z"
         style="fill:#534741;fill-opacity:1;fill-rule:nonzero;stroke:none"
         id="path4177"
         inkscape:connector-curvature="0" />
      <path
         d="m 200.57735,461.46497 c 0,-0.85125 0.33125,-1.39375 0.99375,-1.6325 0.66125,-0.235 4.8375,-0.4775 12.53,-0.73125 0.18875,1.45 0.18875,3.3875 0,5.815 3.49875,-2.36375 6.86375,-4.0025 10.09625,-4.9175 3.23,-0.91375 6.17,-1.37125 8.8175,-1.37125 0.8825,0 1.47375,0.1025 1.77375,0.30875 0.29875,0.205 0.44875,0.65375 0.44875,1.3475 0,1.355 -0.2125,2.80625 -0.63875,4.35 -0.425,1.545 -0.9375,2.5225 -1.5375,2.93125 -0.5975,0.41 -1.59125,0.72625 -2.97875,0.94625 -1.38625,0.22 -2.1975,0.2675 -2.43375,0.14 -0.23625,-0.125 -0.95375,-0.9925 -2.15125,-2.6 -2.8075,0 -5.07625,0.89125 -6.81,2.6725 -1.7325,1.78125 -2.60125,5.3675 -2.60125,10.75625 0.0325,9.6775 0.1575,16.86625 0.37875,21.5625 l 6.6675,0 c 0.37875,0.82 0.5675,1.70125 0.5675,2.6475 0,0.85125 -0.17375,1.435 -0.52,1.75125 -0.34625,0.315 -1.01,0.4725 -1.98625,0.4725 l -20.00125,0 c -0.41125,-1.01 -0.615,-1.95625 -0.615,-2.83875 0,-0.69375 0.17375,-1.205 0.52,-1.535 0.34625,-0.33125 0.91375,-0.4975 1.7025,-0.4975 l 3.2625,0 c 0.2525,-4.69625 0.3775,-10.84375 0.3775,-18.44125 0,-9.29875 -0.3625,-14.69 -1.0875,-16.17 -0.725,-1.48375 -2.11125,-2.22375 -4.16,-2.22375 -0.41125,-0.8825 -0.615,-1.79625 -0.615,-2.7425"
         style="fill:#534741;fill-opacity:1;fill-rule:nonzero;stroke:none"
         id="path4181"
         inkscape:connector-curvature="0" />
      <path
         d="m 256.73335,464.72672 c -3.1525,0 -5.54875,1.12875 -7.1875,3.38125 -1.64,2.255 -2.5375,5.77625 -2.695,10.56875 l 4.87,0 c 5.16875,0 8.69125,-0.1025 10.5675,-0.3075 1.875,-0.20375 2.9625,-0.54375 3.26375,-1.01625 0.29875,-0.4725 0.44875,-1.355 0.44875,-2.64875 0,-3.12125 -0.78875,-5.5625 -2.365,-7.32875 -1.575,-1.765 -3.87625,-2.64875 -6.9025,-2.64875 m 1.7975,-6.335 c 5.8625,0 10.2125,1.3875 13.04875,4.16125 2.8375,2.77375 4.25625,7.345 4.25625,13.71125 0,2.8075 -0.505,4.76125 -1.51375,5.86375 -1.0075,1.105 -3.215,1.65625 -6.62,1.65625 l -20.89875,0 c 0.0625,5.1375 1.095,9.1725 3.09625,12.105 2.0025,2.93 5.54,4.39625 10.615,4.39625 4.73,0 9.1275,-1.22875 13.19375,-3.68875 1.355,1.3575 2.03375,2.79125 2.03375,4.30375 0,2.11375 -1.7425,3.59375 -5.22625,4.445 -3.48375,0.8525 -7.41625,1.2775 -11.7975,1.2775 -8.07,0 -13.8625,-1.71125 -17.37625,-5.13125 -3.51625,-3.42 -5.2725,-9.18 -5.2725,-17.2825 0,-7.97625 1.9775,-14.2725 5.93375,-18.89 3.95625,-4.61875 9.46375,-6.9275 16.5275,-6.9275"
         style="fill:#534741;fill-opacity:1;fill-rule:nonzero;stroke:none"
         id="path4185"
         inkscape:connector-curvature="0" />
      <path
         d="m 300.45285,464.72672 c -3.15125,0 -5.5475,1.12875 -7.18625,3.38125 -1.64125,2.255 -2.53875,5.77625 -2.695,10.56875 l 4.87,0 c 5.16875,0 8.69125,-0.1025 10.5675,-0.3075 1.875,-0.20375 2.9625,-0.54375 3.2625,-1.01625 0.29875,-0.4725 0.45,-1.355 0.45,-2.64875 0,-3.12125 -0.79,-5.5625 -2.36625,-7.32875 -1.575,-1.765 -3.875,-2.64875 -6.9025,-2.64875 m 1.7975,-6.335 c 5.86375,0 10.2125,1.3875 13.05,4.16125 2.8375,2.77375 4.25625,7.345 4.25625,13.71125 0,2.8075 -0.50375,4.76125 -1.51375,5.86375 -1.0075,1.105 -3.21375,1.65625 -6.61875,1.65625 l -20.9,0 c 0.0625,5.1375 1.095,9.1725 3.09625,12.105 2.0025,2.93 5.54125,4.39625 10.615,4.39625 4.73,0 9.12625,-1.22875 13.1925,-3.68875 1.355,1.3575 2.03375,2.79125 2.03375,4.30375 0,2.11375 -1.7425,3.59375 -5.225,4.445 -3.4825,0.8525 -7.415,1.2775 -11.7975,1.2775 -8.07,0 -13.8625,-1.71125 -17.3775,-5.13125 -3.515,-3.42 -5.2725,-9.18 -5.2725,-17.2825 0,-7.97625 1.97875,-14.2725 5.935,-18.89 3.95625,-4.61875 9.46375,-6.9275 16.52625,-6.9275"
         style="fill:#534741;fill-opacity:1;fill-rule:nonzero;stroke:none"
         id="path4189"
         inkscape:connector-curvature="0" />
      <path
         d="m 344.93035,464.72672 c -3.7825,0 -6.5175,1.31875 -8.20375,3.95 -1.68625,2.63125 -2.53,7.17875 -2.53,13.64125 0,5.6725 0.80375,10.1275 2.41125,13.35875 1.6075,3.23125 4.31875,4.84625 8.13375,4.84625 2.01625,0 3.86,-0.40375 5.53125,-1.20625 1.67125,-0.805 2.8125,-1.86 3.42875,-3.1675 0.615,-1.3075 0.9225,-4.5325 0.9225,-9.67125 l 0,-19.29125 c -1.135,-0.63 -2.515,-1.1975 -4.1375,-1.7025 -1.62375,-0.50375 -3.47625,-0.7575 -5.55625,-0.7575 m 11.01625,37.40375 c -2.8675,1.70125 -5.5475,2.91625 -8.03625,3.64125 -2.49125,0.725 -5.06125,1.0875 -7.70875,1.0875 -5.35875,0 -9.48,-1.6075 -12.365,-4.8225 -2.88375,-3.2175 -4.3275,-8.795 -4.3275,-16.74 0,-8.76375 1.9225,-15.43875 5.77,-20.02375 3.84625,-4.58875 9.59875,-6.88125 17.25875,-6.88125 1.8275,0 3.3575,0.095 4.58625,0.28375 1.22875,0.18875 2.39625,0.42625 3.5,0.70875 0,-2.3325 -0.0562,-4.83125 -0.16625,-7.495 -0.11,-2.66375 -0.33125,-4.545 -0.66125,-5.65 -0.33125,-1.10375 -0.8825,-1.8125 -1.655,-2.1275 -0.77375,-0.315 -1.75875,-0.47375 -2.955,-0.47375 -0.41125,-0.975 -0.615,-1.93875 -0.615,-2.88375 0,-0.9775 0.39375,-1.59125 1.18125,-1.84375 0.7875,-0.2525 3.3875,-0.37875 7.8025,-0.37875 2.49,0 4.17625,0.11875 5.05875,0.35375 0.88375,0.23875 1.3875,0.67875 1.5125,1.325 0.1275,0.64625 0.19125,1.7575 0.19125,3.33375 l 0,33.85625 c 0,12.04125 0.275,19.05625 0.8275,21.0425 0.55,1.985 1.41,2.8525 2.57625,2.6 0.44125,0.72625 0.6625,1.43375 0.6625,2.1275 0,0.8825 -1.0475,1.71875 -3.145,2.50625 -2.0975,0.7875 -3.80625,1.1825 -5.13,1.1825 -0.78875,0 -1.45125,-0.27625 -1.985,-0.8275 -0.5375,-0.55 -1.2625,-1.85125 -2.1775,-3.90125"
         style="fill:#534741;fill-opacity:1;fill-rule:nonzero;stroke:none"
         id="path4193"
         inkscape:connector-curvature="0" />
      <path
         d="m 394.2761,500.5226 c 3.595,0 6.19625,-1.355 7.80375,-4.06625 1.6075,-2.71125 2.41,-6.8875 2.41,-12.53125 0,-6.49375 -0.82625,-11.3175 -2.48125,-14.47 -1.65625,-3.15125 -4.5,-4.72875 -8.535,-4.72875 -3.595,0 -6.19625,1.35625 -7.80375,4.0675 -1.60625,2.71125 -2.41,6.905 -2.41,12.57875 0,6.4625 0.8275,11.27 2.4825,14.4225 1.655,3.15125 4.49875,4.7275 8.53375,4.7275 m -1.7975,6.33625 c -6.83875,0 -11.8675,-1.8125 -15.0825,-5.4375 -3.215,-3.62625 -4.8225,-9.095 -4.8225,-16.40875 0,-8.4175 1.94625,-14.9575 5.84,-19.6225 3.8925,-4.665 9.51125,-6.99875 16.8575,-6.99875 6.83875,0 11.8675,1.81375 15.08375,5.43875 3.215,3.625 4.8225,9.11125 4.8225,16.455 0,8.385 -1.94625,14.91 -5.84,19.57625 -3.8925,4.665 -9.5125,6.9975 -16.85875,6.9975"
         style="fill:#534741;fill-opacity:1;fill-rule:nonzero;stroke:none"
         id="path4197"
         inkscape:connector-curvature="0" />
      <path
         d="m 438.27997,463.78185 c -2.995,0 -5.2175,0.84375 -6.66625,2.52875 -1.45125,1.6875 -2.17625,4.7375 -2.17625,9.15 0,3.78375 0.70125,6.5425 2.10375,8.275 1.4025,1.735 3.60125,2.60125 6.5975,2.60125 3.18375,0 5.5325,-0.78125 7.04375,-2.34 1.515,-1.56125 2.27125,-4.5 2.27125,-8.81875 0,-3.81375 -0.76375,-6.6675 -2.29375,-8.55875 -1.53,-1.8925 -3.82375,-2.8375 -6.88,-2.8375 m -7.66,43.55 c -1.105,1.10375 -1.9475,2.34875 -2.53,3.735 -0.58375,1.3875 -0.875,2.79125 -0.875,4.20875 0,2.1425 0.64625,3.68875 1.93875,4.63375 1.2925,0.94625 3.87875,1.41875 7.75375,1.41875 5.675,0 9.955,-0.67875 12.83875,-2.03375 2.88375,-1.35625 4.3275,-3.32625 4.3275,-5.91 0,-2.27 -1.0575,-3.8475 -3.1675,-4.72875 -2.11375,-0.8825 -8.875,-1.32375 -20.28625,-1.32375 m 23.7375,-43.5025 c 1.76375,3.15375 2.6475,6.50875 2.6475,10.0725 0,5.32625 -1.71,9.63 -5.13,12.9075 -3.42125,3.28 -8.8025,4.91875 -16.14875,4.91875 -3.30875,0 -5.45375,0.355 -6.43,1.06375 -0.9775,0.7075 -1.465,1.7425 -1.465,3.0975 0,1.63875 0.66125,2.82 1.985,3.545 1.32375,0.7275 6.1625,1.08875 14.51625,1.08875 8.22875,0 13.5625,0.8425 16.00625,2.52875 2.4425,1.6875 3.66375,4.185 3.66375,7.495 0,4.98 -2.5925,8.92125 -7.77875,11.82125 -5.18375,2.89875 -13.215,4.35125 -24.09,4.35125 -5.29625,0 -8.8425,-0.71875 -10.64125,-2.15125 -1.79625,-1.4375 -2.69375,-3.44625 -2.69375,-6.02875 0,-1.92375 0.50375,-3.8875 1.5125,-5.88875 1.01,-2.00125 2.4125,-3.9325 4.20875,-5.79125 -1.545,-0.6325 -2.78125,-1.56875 -3.7125,-2.815 -0.93,-1.24375 -1.39375,-2.78125 -1.39375,-4.61 0,-1.89125 0.59875,-3.6325 1.7975,-5.22375 1.19625,-1.5925 3.025,-2.9875 5.48375,-4.185 -2.0175,-0.81875 -3.65,-2.285 -4.895,-4.3975 -1.245,-2.1125 -1.86625,-4.87125 -1.86625,-8.27625 0,-5.54625 1.7025,-10.095 5.10625,-13.64125 3.405,-3.54625 8.52625,-5.32 15.3675,-5.32 3.78375,0 7.26625,0.61625 10.45125,1.845 4.0975,-1.85875 6.54,-2.79 7.32875,-2.79 3.815,0 5.89375,0.10375 6.24125,0.3075 0.34625,0.205 0.52,0.54375 0.52,1.01625 0,0.82 -0.37125,1.995 -1.11125,3.52375 -0.74,1.52875 -1.43375,2.2925 -2.08125,2.2925 -0.645,0 -2.73375,-0.71 -6.26375,-2.12875 l -1.135,1.3725 z"
         style="fill:#534741;fill-opacity:1;fill-rule:nonzero;stroke:none"
         id="path4201"
         inkscape:connector-curvature="0" />
    </g>
    <rect
       style="fill:#c7b299;fill-opacity:1;stroke:none;stroke-width:5.9;stroke-miterlimit:4;stroke-dasharray:none;stroke-opacity:1"
       id="rect5345"
       width="138.57143"
       height="62.857143"
       x="72.736198"
       y="108.83454" />
  </g>
</svg>
