<?xml version="1.0" encoding="UTF-8" standalone="no"?>
<svg
   xmlns:dc="http://purl.org/dc/elements/1.1/"
   xmlns:cc="http://creativecommons.org/ns#"
   xmlns:rdf="http://www.w3.org/1999/02/22-rdf-syntax-ns#"
   xmlns:svg="http://www.w3.org/2000/svg"
   xmlns="http://www.w3.org/2000/svg"
   xmlns:sodipodi="http://sodipodi.sourceforge.net/DTD/sodipodi-0.dtd"
   xmlns:inkscape="http://www.inkscape.org/namespaces/inkscape"
   version="1.1"
   id="svg2"
   viewBox="0 0 168 39.999998"
   height="40"
   width="168"
   inkscape:version="0.91 r13725"
   sodipodi:docname="logo.svg">
  <sodipodi:namedview
     pagecolor="#ffffff"
     bordercolor="#666666"
     borderopacity="1"
     objecttolerance="10"
     gridtolerance="10"
     guidetolerance="10"
     inkscape:pageopacity="0"
     inkscape:pageshadow="2"
     inkscape:window-width="1301"
     inkscape:window-height="690"
     id="namedview5299"
     showgrid="false"
     inkscape:zoom="3.6904762"
     inkscape:cx="76.335875"
     inkscape:cy="20"
     inkscape:window-x="0"
     inkscape:window-y="0"
     inkscape:window-maximized="0"
     inkscape:current-layer="layer1" />
  <defs
     id="defs4">
    <clipPath
       clipPathUnits="userSpaceOnUse"
       id="clipPath4171">
      <path
         d="M 0,415 550,415 550,0 0,0 0,415 Z"
         id="path4173" />
    </clipPath>
  </defs>
  <metadata
     id="metadata7">
    <rdf:RDF>
      <cc:Work
         rdf:about="">
        <dc:format>image/svg+xml</dc:format>
        <dc:type
           rdf:resource="http://purl.org/dc/dcmitype/StillImage" />
        <dc:title></dc:title>
      </cc:Work>
    </rdf:RDF>
  </metadata>
  <g
     transform="translate(-40.950484,-47.40597)"
     id="layer1">
    <g
       transform="matrix(0.15126682,0,0,0.12438213,116.98481,42.136584)"
       id="g4310"
       style="fill:#e3dbdb">
      <g
         id="g4366"
         transform="matrix(1.184551,0,0,1.184551,65.662103,-38.696535)"
         style="fill:#e3dbdb">
        <path
           style="fill:#e3dbdb;fill-opacity:1;fill-rule:nonzero;stroke:none"
           d="m 24.095703,6.0410156 c -0.723481,0 -0.888672,0.890625 -0.888672,0.890625 l 0,0.5214844 -0.162109,0.2265625 c 0,0 -0.24277,-0.1789572 -0.56836,-0.5351563 -0.325896,-0.3563501 -0.537881,-0.2850196 -0.791015,0 C 21.432259,7.4295509 21.6875,8 21.6875,8 c 0.108683,0.3203827 0.253716,1.3177802 0.326172,1.6738281 0.07246,0.3561989 -0.215224,1.5681379 -0.07031,1.8886719 0.144451,0.320685 0.07227,0.854875 0.07227,1.496094 0,0.03454 -0.01397,0.07318 -0.01953,0.109375 -0.167186,-0.331703 -0.317356,-0.596919 -0.433594,-0.8125 -0.266643,-0.495536 -0.317552,-1.280214 -0.355469,-1.585938 -0.03853,-0.305875 -0.484375,-0.71875 -0.484375,-0.71875 0,0 -0.0043,0.219561 -0.08398,0.337891 -0.408484,-0.6183991 -0.75586,-0.375 -0.75586,-0.375 0,0 0.01495,0.233749 0.117188,0.417969 -0.08965,-0.120597 -0.499833,-0.283602 -0.542969,-0.164063 -0.04667,0.129664 0.220549,0.623318 0.404297,0.833984 -0.527452,-0.184522 -0.554687,-0.0098 -0.554687,-0.0098 0,0 0.201163,0.472199 0.498047,0.576172 0.296576,0.103822 0.738281,0.732422 0.738281,0.732422 l 0.144531,0.527343 0.34375,0.486328 c 0,0 0.140723,0.536974 0.246094,0.94336 -0.10905,0.116479 -0.275391,0.304687 -0.275391,0.304687 l -0.615234,0.675782 c 0,0 -1.158203,-0.391492 -1.158203,-0.320313 -1.158061,-1.460461 -1.735649,-1.887584 -2.169922,-2.279297 -0.43412,-0.391864 -0.759693,-1.140912 -0.904297,-1.425781 -0.145065,-0.28502 -0.72461,-0.533203 -0.724609,-0.533203 0,0 0.07303,0.21311 0.03711,0.355469 -0.615412,-0.463195 -0.869141,-0.107422 -0.869141,-0.107422 0,0 0.09731,0.224515 0.261719,0.36914 -0.129867,-0.0869 -0.587891,-0.107738 -0.587891,0.02344 0,0.142359 0.434366,0.535224 0.6875,0.677734 -0.578876,0 -0.542968,0.177735 -0.542968,0.177735 0,0 0.361757,0.390625 0.6875,0.390625 0.325436,0 0.976562,0.464843 0.976562,0.464843 l 0.326172,0.462891 0.507812,0.355469 c 0,0 1.735722,2.528786 2.025391,3.027343 0.289515,0.498709 0.759766,0.642579 0.759766,0.642579 0,0 0.578481,0.03573 1.048828,0.142578 -0.759862,1.389282 3.65625,5.55664 3.65625,5.55664 0.687407,1.033235 0.216797,3.455078 0.216797,3.455079 0,0 -0.616722,1.639522 -0.363282,2.316406 0.253441,0.676884 0.580375,0.890443 1.738282,1.923828 1.157753,1.033083 0.867187,1.779297 0.867187,1.779297 0,0 -0.470287,1.389743 -0.6875,1.746093 -0.398045,-0.178175 -0.867377,-0.03677 -0.794922,0.212891 0.07246,0.249355 0.831959,0.249781 0.976563,0.107422 0.180985,0.14251 0.542969,0 0.542969,0 0,0 0.615816,-1.282609 0.941406,-1.923828 0.542802,0 1.15625,-1.460938 1.15625,-1.460938 -1.157754,-1.994835 -1.012673,-3.133458 -0.904297,-3.382812 0.10853,-0.249203 0.435628,-0.854366 0.580078,-1.53125 2.062834,1.602971 3.654617,1.530329 4.197266,1.173828 0.542649,-0.356199 0.904414,0.07206 0.976562,0.107422 0.07261,0.03612 0.506276,-0.141629 0.289063,-0.355469 -0.216906,-0.213689 -0.868652,-0.499423 -1.230469,-0.392578 -0.362124,0.106845 -0.794825,0.178903 -1.554688,0.107422 -0.760015,-0.07103 -1.881907,-1.211072 -2.460937,-1.958984 0.03638,-1.068749 -1.810021,-4.488402 -2.244141,-5.521485 -0.434119,-1.032932 -0.433593,-3.527344 -0.433593,-3.527344 0.0852,-0.776172 -0.340638,-1.230899 -0.253907,-1.568359 0.06048,-0.235451 0.397176,0.07155 0.50586,-0.320312 0,-0.21369 7.3e-5,-1.174116 -0.144532,-1.458985 -0.144757,-0.284868 -0.458157,-0.184891 -0.46875,-0.605469 -0.01013,-0.387784 -0.326322,-0.915931 -0.291015,-1.033203 0.180985,-0.605704 0.109375,-2.0312498 0.109375,-2.0312498 0,0 0.180023,-0.7832031 -0.181641,-0.7832031 -0.36197,0 -0.578125,-0.4628906 -0.578125,-0.4628906 L 24.728516,6.71875 c 0,0 0.09098,-0.6777344 -0.632813,-0.6777344 z m 2.660156,23.5468754 c 0.325436,0.249203 0.722657,1.246093 0.722657,1.246093 -0.579031,-0.462892 -0.722657,-1.246093 -0.722657,-1.246093 z"
           transform="matrix(8.1429236,0,0,8.2713585,-558.54208,32.156521)"
           id="path4209"
           inkscape:connector-curvature="0" />
      </g>
    </g>
    <g
       transform="matrix(0.37490315,0,0,0.37490315,23.275936,-110.57603)"
       id="g4299"
       style="fill:#e3dbdb">
      <path
         id="path4177"
         style="fill:#e3dbdb;fill-opacity:1;fill-rule:nonzero;stroke:none"
         d="m 174.87311,501.0426 c 0.25125,-4.38125 0.37875,-15.62 0.37875,-33.715 0,-9.67625 -0.1275,-16.2975 -0.37875,-19.85875 -11.19125,0.47375 -17.5125,0.70875 -18.9625,0.70875 -1.38625,0 -2.34875,-0.22125 -2.88375,-0.66125 -0.535,-0.4425 -0.80375,-1.2775 -0.80375,-2.50625 0,-1.765 0.44125,-3.68875 1.32375,-5.76875 5.36,1.4175 13.12875,2.1275 23.31125,2.1275 l 29.55374,0 c 1.3875,0 2.35625,0.22875 2.90875,0.68625 0.55,0.45625 0.8275,1.28375 0.8275,2.4825 0,2.20625 -0.6475,4.30125 -1.94,6.28875 -5.26375,-2.24 -12.10499,-3.3575 -20.52124,-3.3575 l -1.6075,0 c -0.2525,3.56125 -0.37875,10.37 -0.37875,20.42625 0,17.7175 0.12625,28.76625 0.37875,33.1475 l 6.76125,0 c 0.37875,0.94625 0.5675,1.86 0.5675,2.7425 0,0.7875 -0.1575,1.34 -0.4725,1.65625 -0.31625,0.315 -0.8675,0.47125 -1.655,0.47125 l -23.16875,0 c -0.41125,-1.07 -0.615,-2.065 -0.615,-2.9775 0,-0.66375 0.16375,-1.1425 0.49625,-1.44375 0.33125,-0.3 0.87375,-0.44875 1.63125,-0.44875 l 5.24875,0 z"
         inkscape:connector-curvature="0" />
      <path
         id="path4181"
         style="fill:#e3dbdb;fill-opacity:1;fill-rule:nonzero;stroke:none"
         d="m 200.57735,461.46497 c 0,-0.85125 0.33125,-1.39375 0.99375,-1.6325 0.66125,-0.235 4.8375,-0.4775 12.53,-0.73125 0.18875,1.45 0.18875,3.3875 0,5.815 3.49875,-2.36375 6.86375,-4.0025 10.09625,-4.9175 3.23,-0.91375 6.17,-1.37125 8.8175,-1.37125 0.8825,0 1.47375,0.1025 1.77375,0.30875 0.29875,0.205 0.44875,0.65375 0.44875,1.3475 0,1.355 -0.2125,2.80625 -0.63875,4.35 -0.425,1.545 -0.9375,2.5225 -1.5375,2.93125 -0.5975,0.41 -1.59125,0.72625 -2.97875,0.94625 -1.38625,0.22 -2.1975,0.2675 -2.43375,0.14 -0.23625,-0.125 -0.95375,-0.9925 -2.15125,-2.6 -2.8075,0 -5.07625,0.89125 -6.81,2.6725 -1.7325,1.78125 -2.60125,5.3675 -2.60125,10.75625 0.0325,9.6775 0.1575,16.86625 0.37875,21.5625 l 6.6675,0 c 0.37875,0.82 0.5675,1.70125 0.5675,2.6475 0,0.85125 -0.17375,1.435 -0.52,1.75125 -0.34625,0.315 -1.01,0.4725 -1.98625,0.4725 l -20.00125,0 c -0.41125,-1.01 -0.615,-1.95625 -0.615,-2.83875 0,-0.69375 0.17375,-1.205 0.52,-1.535 0.34625,-0.33125 0.91375,-0.4975 1.7025,-0.4975 l 3.2625,0 c 0.2525,-4.69625 0.3775,-10.84375 0.3775,-18.44125 0,-9.29875 -0.3625,-14.69 -1.0875,-16.17 -0.725,-1.48375 -2.11125,-2.22375 -4.16,-2.22375 -0.41125,-0.8825 -0.615,-1.79625 -0.615,-2.7425"
         inkscape:connector-curvature="0" />
      <path
         id="path4185"
         style="fill:#e3dbdb;fill-opacity:1;fill-rule:nonzero;stroke:none"
         d="m 256.73335,464.72672 c -3.1525,0 -5.54875,1.12875 -7.1875,3.38125 -1.64,2.255 -2.5375,5.77625 -2.695,10.56875 l 4.87,0 c 5.16875,0 8.69125,-0.1025 10.5675,-0.3075 1.875,-0.20375 2.9625,-0.54375 3.26375,-1.01625 0.29875,-0.4725 0.44875,-1.355 0.44875,-2.64875 0,-3.12125 -0.78875,-5.5625 -2.365,-7.32875 -1.575,-1.765 -3.87625,-2.64875 -6.9025,-2.64875 m 1.7975,-6.335 c 5.8625,0 10.2125,1.3875 13.04875,4.16125 2.8375,2.77375 4.25625,7.345 4.25625,13.71125 0,2.8075 -0.505,4.76125 -1.51375,5.86375 -1.0075,1.105 -3.215,1.65625 -6.62,1.65625 l -20.89875,0 c 0.0625,5.1375 1.095,9.1725 3.09625,12.105 2.0025,2.93 5.54,4.39625 10.615,4.39625 4.73,0 9.1275,-1.22875 13.19375,-3.68875 1.355,1.3575 2.03375,2.79125 2.03375,4.30375 0,2.11375 -1.7425,3.59375 -5.22625,4.445 -3.48375,0.8525 -7.41625,1.2775 -11.7975,1.2775 -8.07,0 -13.8625,-1.71125 -17.37625,-5.13125 -3.51625,-3.42 -5.2725,-9.18 -5.2725,-17.2825 0,-7.97625 1.9775,-14.2725 5.93375,-18.89 3.95625,-4.61875 9.46375,-6.9275 16.5275,-6.9275"
         inkscape:connector-curvature="0" />
      <path
         id="path4189"
         style="fill:#e3dbdb;fill-opacity:1;fill-rule:nonzero;stroke:none"
         d="m 300.45285,464.72672 c -3.15125,0 -5.5475,1.12875 -7.18625,3.38125 -1.64125,2.255 -2.53875,5.77625 -2.695,10.56875 l 4.87,0 c 5.16875,0 8.69125,-0.1025 10.5675,-0.3075 1.875,-0.20375 2.9625,-0.54375 3.2625,-1.01625 0.29875,-0.4725 0.45,-1.355 0.45,-2.64875 0,-3.12125 -0.79,-5.5625 -2.36625,-7.32875 -1.575,-1.765 -3.875,-2.64875 -6.9025,-2.64875 m 1.7975,-6.335 c 5.86375,0 10.2125,1.3875 13.05,4.16125 2.8375,2.77375 4.25625,7.345 4.25625,13.71125 0,2.8075 -0.50375,4.76125 -1.51375,5.86375 -1.0075,1.105 -3.21375,1.65625 -6.61875,1.65625 l -20.9,0 c 0.0625,5.1375 1.095,9.1725 3.09625,12.105 2.0025,2.93 5.54125,4.39625 10.615,4.39625 4.73,0 9.12625,-1.22875 13.1925,-3.68875 1.355,1.3575 2.03375,2.79125 2.03375,4.30375 0,2.11375 -1.7425,3.59375 -5.225,4.445 -3.4825,0.8525 -7.415,1.2775 -11.7975,1.2775 -8.07,0 -13.8625,-1.71125 -17.3775,-5.13125 -3.515,-3.42 -5.2725,-9.18 -5.2725,-17.2825 0,-7.97625 1.97875,-14.2725 5.935,-18.89 3.95625,-4.61875 9.46375,-6.9275 16.52625,-6.9275"
         inkscape:connector-curvature="0" />
      <path
         id="path4193"
         style="fill:#e3dbdb;fill-opacity:1;fill-rule:nonzero;stroke:none"
         d="m 344.93035,464.72672 c -3.7825,0 -6.5175,1.31875 -8.20375,3.95 -1.68625,2.63125 -2.53,7.17875 -2.53,13.64125 0,5.6725 0.80375,10.1275 2.41125,13.35875 1.6075,3.23125 4.31875,4.84625 8.13375,4.84625 2.01625,0 3.86,-0.40375 5.53125,-1.20625 1.67125,-0.805 2.8125,-1.86 3.42875,-3.1675 0.615,-1.3075 0.9225,-4.5325 0.9225,-9.67125 l 0,-19.29125 c -1.135,-0.63 -2.515,-1.1975 -4.1375,-1.7025 -1.62375,-0.50375 -3.47625,-0.7575 -5.55625,-0.7575 m 11.01625,37.40375 c -2.8675,1.70125 -5.5475,2.91625 -8.03625,3.64125 -2.49125,0.725 -5.06125,1.0875 -7.70875,1.0875 -5.35875,0 -9.48,-1.6075 -12.365,-4.8225 -2.88375,-3.2175 -4.3275,-8.795 -4.3275,-16.74 0,-8.76375 1.9225,-15.43875 5.77,-20.02375 3.84625,-4.58875 9.59875,-6.88125 17.25875,-6.88125 1.8275,0 3.3575,0.095 4.58625,0.28375 1.22875,0.18875 2.39625,0.42625 3.5,0.70875 0,-2.3325 -0.0562,-4.83125 -0.16625,-7.495 -0.11,-2.66375 -0.33125,-4.545 -0.66125,-5.65 -0.33125,-1.10375 -0.8825,-1.8125 -1.655,-2.1275 -0.77375,-0.315 -1.75875,-0.47375 -2.955,-0.47375 -0.41125,-0.975 -0.615,-1.93875 -0.615,-2.88375 0,-0.9775 0.39375,-1.59125 1.18125,-1.84375 0.7875,-0.2525 3.3875,-0.37875 7.8025,-0.37875 2.49,0 4.17625,0.11875 5.05875,0.35375 0.88375,0.23875 1.3875,0.67875 1.5125,1.325 0.1275,0.64625 0.19125,1.7575 0.19125,3.33375 l 0,33.85625 c 0,12.04125 0.275,19.05625 0.8275,21.0425 0.55,1.985 1.41,2.8525 2.57625,2.6 0.44125,0.72625 0.6625,1.43375 0.6625,2.1275 0,0.8825 -1.0475,1.71875 -3.145,2.50625 -2.0975,0.7875 -3.80625,1.1825 -5.13,1.1825 -0.78875,0 -1.45125,-0.27625 -1.985,-0.8275 -0.5375,-0.55 -1.2625,-1.85125 -2.1775,-3.90125"
         inkscape:connector-curvature="0" />
      <path
         id="path4197"
         style="fill:#e3dbdb;fill-opacity:1;fill-rule:nonzero;stroke:none"
         d="m 394.2761,500.5226 c 3.595,0 6.19625,-1.355 7.80375,-4.06625 1.6075,-2.71125 2.41,-6.8875 2.41,-12.53125 0,-6.49375 -0.82625,-11.3175 -2.48125,-14.47 -1.65625,-3.15125 -4.5,-4.72875 -8.535,-4.72875 -3.595,0 -6.19625,1.35625 -7.80375,4.0675 -1.60625,2.71125 -2.41,6.905 -2.41,12.57875 0,6.4625 0.8275,11.27 2.4825,14.4225 1.655,3.15125 4.49875,4.7275 8.53375,4.7275 m -1.7975,6.33625 c -6.83875,0 -11.8675,-1.8125 -15.0825,-5.4375 -3.215,-3.62625 -4.8225,-9.095 -4.8225,-16.40875 0,-8.4175 1.94625,-14.9575 5.84,-19.6225 3.8925,-4.665 9.51125,-6.99875 16.8575,-6.99875 6.83875,0 11.8675,1.81375 15.08375,5.43875 3.215,3.625 4.8225,9.11125 4.8225,16.455 0,8.385 -1.94625,14.91 -5.84,19.57625 -3.8925,4.665 -9.5125,6.9975 -16.85875,6.9975"
         inkscape:connector-curvature="0" />
      <path
         id="path4201"
         style="fill:#e3dbdb;fill-opacity:1;fill-rule:nonzero;stroke:none"
         d="m 438.27997,463.78185 c -2.995,0 -5.2175,0.84375 -6.66625,2.52875 -1.45125,1.6875 -2.17625,4.7375 -2.17625,9.15 0,3.78375 0.70125,6.5425 2.10375,8.275 1.4025,1.735 3.60125,2.60125 6.5975,2.60125 3.18375,0 5.5325,-0.78125 7.04375,-2.34 1.515,-1.56125 2.27125,-4.5 2.27125,-8.81875 0,-3.81375 -0.76375,-6.6675 -2.29375,-8.55875 -1.53,-1.8925 -3.82375,-2.8375 -6.88,-2.8375 m -7.66,43.55 c -1.105,1.10375 -1.9475,2.34875 -2.53,3.735 -0.58375,1.3875 -0.875,2.79125 -0.875,4.20875 0,2.1425 0.64625,3.68875 1.93875,4.63375 1.2925,0.94625 3.87875,1.41875 7.75375,1.41875 5.675,0 9.955,-0.67875 12.83875,-2.03375 2.88375,-1.35625 4.3275,-3.32625 4.3275,-5.91 0,-2.27 -1.0575,-3.8475 -3.1675,-4.72875 -2.11375,-0.8825 -8.875,-1.32375 -20.28625,-1.32375 m 23.7375,-43.5025 c 1.76375,3.15375 2.6475,6.50875 2.6475,10.0725 0,5.32625 -1.71,9.63 -5.13,12.9075 -3.42125,3.28 -8.8025,4.91875 -16.14875,4.91875 -3.30875,0 -5.45375,0.355 -6.43,1.06375 -0.9775,0.7075 -1.465,1.7425 -1.465,3.0975 0,1.63875 0.66125,2.82 1.985,3.545 1.32375,0.7275 6.1625,1.08875 14.51625,1.08875 8.22875,0 13.5625,0.8425 16.00625,2.52875 2.4425,1.6875 3.66375,4.185 3.66375,7.495 0,4.98 -2.5925,8.92125 -7.77875,11.82125 -5.18375,2.89875 -13.215,4.35125 -24.09,4.35125 -5.29625,0 -8.8425,-0.71875 -10.64125,-2.15125 -1.79625,-1.4375 -2.69375,-3.44625 -2.69375,-6.02875 0,-1.92375 0.50375,-3.8875 1.5125,-5.88875 1.01,-2.00125 2.4125,-3.9325 4.20875,-5.79125 -1.545,-0.6325 -2.78125,-1.56875 -3.7125,-2.815 -0.93,-1.24375 -1.39375,-2.78125 -1.39375,-4.61 0,-1.89125 0.59875,-3.6325 1.7975,-5.22375 1.19625,-1.5925 3.025,-2.9875 5.48375,-4.185 -2.0175,-0.81875 -3.65,-2.285 -4.895,-4.3975 -1.245,-2.1125 -1.86625,-4.87125 -1.86625,-8.27625 0,-5.54625 1.7025,-10.095 5.10625,-13.64125 3.405,-3.54625 8.52625,-5.32 15.3675,-5.32 3.78375,0 7.26625,0.61625 10.45125,1.845 4.0975,-1.85875 6.54,-2.79 7.32875,-2.79 3.815,0 5.89375,0.10375 6.24125,0.3075 0.34625,0.205 0.52,0.54375 0.52,1.01625 0,0.82 -0.37125,1.995 -1.11125,3.52375 -0.74,1.52875 -1.43375,2.2925 -2.08125,2.2925 -0.645,0 -2.73375,-0.71 -6.26375,-2.12875 l -1.135,1.3725 z"
         inkscape:connector-curvature="0" />
    </g>
  </g>
</svg>
